<?xml version="1.0" encoding="UTF-8" standalone="no"?>
<!DOCTYPE svg PUBLIC "-//W3C//DTD SVG 1.1//EN" "http://www.w3.org/Graphics/SVG/1.1/DTD/svg11.dtd">
<svg width="100%" height="100%" viewBox="0 0 400 400" version="1.1" xmlns="http://www.w3.org/2000/svg" xmlns:xlink="http://www.w3.org/1999/xlink" xml:space="preserve" xmlns:serif="http://www.serif.com/" style="fill-rule:evenodd;clip-rule:evenodd;stroke-linecap:square;stroke-linejoin:round;stroke-miterlimit:1.5;">
    <g id="Icon-2---Attempt-2" serif:id="Icon 2 - Attempt 2">
        <g transform="matrix(1.66667,0,0,1.66667,36,-209.333)">
            <circle cx="60" cy="284" r="6" style="fill:rgb(31,40,51);stroke:rgb(31,40,51);stroke-width:2.4px;"/>
        </g>
        <g transform="matrix(1.66667,0,0,1.66667,36,-241.333)">
            <circle cx="60" cy="284" r="6" style="fill:rgb(31,40,51);stroke:rgb(31,40,51);stroke-width:2.4px;"/>
        </g>
        <g transform="matrix(1.66667,0,0,1.66667,36,-273.333)">
            <circle cx="60" cy="284" r="6" style="fill:rgb(31,40,51);stroke:rgb(31,40,51);stroke-width:2.4px;"/>
        </g>
        <g transform="matrix(1.66667,0,0,1.66667,36,-305.333)">
            <circle cx="60" cy="284" r="6" style="fill:none;stroke:rgb(31,40,51);stroke-width:2.4px;"/>
        </g>
        <g transform="matrix(1.66667,0,0,1.66667,164,-241.333)">
            <circle cx="60" cy="284" r="6" style="fill:rgb(31,40,51);stroke:rgb(31,40,51);stroke-width:2.4px;"/>
        </g>
        <g transform="matrix(1.66667,0,0,1.66667,164,-273.333)">
            <circle cx="60" cy="284" r="6" style="fill:rgb(31,40,51);stroke:rgb(31,40,51);stroke-width:2.4px;"/>
        </g>
        <g transform="matrix(1.66667,0,0,1.66667,164,-305.333)">
            <circle cx="60" cy="284" r="6" style="fill:none;stroke:rgb(31,40,51);stroke-width:2.4px;"/>
        </g>
        <g transform="matrix(1.66667,0,0,1.66667,36,-337.333)">
            <circle cx="60" cy="284" r="6" style="fill:rgb(31,40,51);stroke:rgb(31,40,51);stroke-width:2.4px;"/>
        </g>
        <g transform="matrix(1.02054e-16,-1.66667,1.66667,1.02054e-16,-209.333,364)">
            <circle cx="60" cy="284" r="6" style="fill:none;stroke:rgb(31,40,51);stroke-width:2.4px;"/>
        </g>
        <g transform="matrix(1.02054e-16,-1.66667,1.66667,1.02054e-16,-241.333,364)">
            <circle cx="60" cy="284" r="6" style="fill:rgb(31,40,51);stroke:rgb(31,40,51);stroke-width:2.4px;"/>
        </g>
        <g transform="matrix(1.02054e-16,-1.66667,1.66667,1.02054e-16,-273.333,364)">
            <circle cx="60" cy="284" r="6" style="fill:rgb(31,40,51);stroke:rgb(31,40,51);stroke-width:2.4px;"/>
        </g>
        <g transform="matrix(1.02054e-16,-1.66667,1.66667,1.02054e-16,-305.333,364)">
            <circle cx="60" cy="284" r="6" style="fill:none;stroke:rgb(31,40,51);stroke-width:2.4px;"/>
        </g>
        <g transform="matrix(1.02054e-16,-1.66667,1.66667,1.02054e-16,-209.333,236)">
            <circle cx="60" cy="284" r="6" style="fill:rgb(31,40,51);stroke:rgb(31,40,51);stroke-width:2.4px;"/>
        </g>
        <g transform="matrix(1.02054e-16,-1.66667,1.66667,1.02054e-16,-305.333,236)">
            <circle cx="60" cy="284" r="6" style="fill:rgb(31,40,51);stroke:rgb(31,40,51);stroke-width:2.4px;"/>
        </g>
        <g>
            <g transform="matrix(0.852174,0,0,0.852174,18.6261,-2.43478)">
                <path d="M126,200L116,210L11,210" style="fill:none;stroke:rgb(31,40,51);stroke-width:4.69px;stroke-linecap:round;"/>
            </g>
            <g transform="matrix(6.12323e-17,1,-1,6.12323e-17,161.739,154.522)">
                <path d="M22,129.478L28,138L16,138L22,129.478Z" style="fill:rgb(31,40,51);stroke:rgb(31,40,51);stroke-width:4px;stroke-linecap:round;"/>
            </g>
        </g>
        <g transform="matrix(1,0,0,1,0,3)">
            <path d="M136,123L136,40" style="fill:none;stroke:rgb(31,40,51);stroke-width:4px;stroke-linecap:round;"/>
        </g>
        <g transform="matrix(1.02054e-16,-1.66667,1.66667,1.02054e-16,-273.333,236)">
            <circle cx="60" cy="284" r="6" style="fill:none;stroke:rgb(31,40,51);stroke-width:2.4px;"/>
        </g>
        <g transform="matrix(1.02054e-16,-1.66667,1.66667,1.02054e-16,-241.333,236)">
            <circle cx="60" cy="284" r="6" style="fill:rgb(31,40,51);stroke:rgb(31,40,51);stroke-width:2.4px;"/>
        </g>
        <g transform="matrix(0.818182,0,0,0.833333,24.7273,7.16667)">
            <path d="M136,43L114,19" style="fill:none;stroke:rgb(31,40,51);stroke-width:4.84px;stroke-linecap:round;"/>
        </g>
        <g transform="matrix(0.6,0,0,0.6,44.2,6.2)">
            <path d="M123,18C123,12.477 118.523,8 113,8C112.335,8 111.665,8 111,8C105.477,8 101,12.477 101,18C101,18 101,18 101,18C101,23.523 105.477,28 111,28C111.665,28 112.335,28 113,28C118.523,28 123,23.523 123,18C123,18 123,18 123,18Z" style="fill:none;stroke:rgb(31,40,51);stroke-width:6.67px;stroke-linecap:round;"/>
        </g>
        <g transform="matrix(0.6,0,0,0.6,101.061,371.2)">
            <path d="M123,18C123,12.477 118.523,8 113,8C112.335,8 111.665,8 111,8C105.477,8 101,12.477 101,18C101,18 101,18 101,18C101,23.523 105.477,28 111,28C111.665,28 112.335,28 113,28C118.523,28 123,23.523 123,18C123,18 123,18 123,18Z" style="fill:none;stroke:rgb(31,40,51);stroke-width:6.67px;stroke-linecap:round;"/>
        </g>
        <g transform="matrix(0.6,0,0,0.6,132.652,371.2)">
            <path d="M123,18C123,12.477 118.523,8 113,8C112.335,8 111.665,8 111,8C105.477,8 101,12.477 101,18C101,18 101,18 101,18C101,23.523 105.477,28 111,28C111.665,28 112.335,28 113,28C118.523,28 123,23.523 123,18C123,18 123,18 123,18Z" style="fill:none;stroke:rgb(31,40,51);stroke-width:6.67px;stroke-linecap:round;"/>
        </g>
        <g transform="matrix(0.6,0,0,0.6,164.498,371.2)">
            <path d="M123,18C123,12.477 118.523,8 113,8C112.335,8 111.665,8 111,8C105.477,8 101,12.477 101,18C101,18 101,18 101,18C101,23.523 105.477,28 111,28C111.665,28 112.335,28 113,28C118.523,28 123,23.523 123,18C123,18 123,18 123,18Z" style="fill:none;stroke:rgb(31,40,51);stroke-width:6.67px;stroke-linecap:round;"/>
        </g>
        <g transform="matrix(1,0,0,1,32.2,3)">
            <path d="M136,123L136,40" style="fill:none;stroke:rgb(31,40,51);stroke-width:4px;stroke-linecap:round;"/>
        </g>
        <g transform="matrix(0.818182,0,0,0.833333,56.9273,7.16667)">
            <path d="M136,43L114,19" style="fill:none;stroke:rgb(31,40,51);stroke-width:4.84px;stroke-linecap:round;"/>
        </g>
        <g transform="matrix(0.6,0,0,0.6,76.4,6.2)">
            <path d="M123,18C123,12.477 118.523,8 113,8C112.335,8 111.665,8 111,8C105.477,8 101,12.477 101,18C101,18 101,18 101,18C101,23.523 105.477,28 111,28C111.665,28 112.335,28 113,28C118.523,28 123,23.523 123,18C123,18 123,18 123,18Z" style="fill:none;stroke:rgb(31,40,51);stroke-width:6.67px;stroke-linecap:round;"/>
        </g>
        <g transform="matrix(1,0,0,1,64,3)">
            <path d="M136,123L136,40" style="fill:none;stroke:rgb(31,40,51);stroke-width:4px;stroke-linecap:round;"/>
        </g>
        <g transform="matrix(0.818182,0,0,0.833333,88.7273,7.16667)">
            <path d="M136,43L114,19" style="fill:none;stroke:rgb(31,40,51);stroke-width:4.84px;stroke-linecap:round;"/>
        </g>
        <g transform="matrix(0.6,0,0,0.6,108.2,6.2)">
            <path d="M123,18C123,12.477 118.523,8 113,8C112.335,8 111.665,8 111,8C105.477,8 101,12.477 101,18C101,18 101,18 101,18C101,23.523 105.477,28 111,28C111.665,28 112.335,28 113,28C118.523,28 123,23.523 123,18C123,18 123,18 123,18Z" style="fill:none;stroke:rgb(31,40,51);stroke-width:6.67px;stroke-linecap:round;"/>
        </g>
        <g transform="matrix(0.6,0,0,0.6,84.4,51.2)">
            <path d="M123,18C123,12.477 118.523,8 113,8C112.335,8 111.665,8 111,8C105.477,8 101,12.477 101,18C101,18 101,18 101,18C101,23.523 105.477,28 111,28C111.665,28 112.335,28 113,28C118.523,28 123,23.523 123,18C123,18 123,18 123,18Z" style="fill:rgb(31,40,51);stroke:rgb(31,40,51);stroke-width:6.67px;stroke-linecap:round;"/>
        </g>
        <g>
            <g transform="matrix(0.6,0,0,0.6,117.204,319.443)">
                <path d="M123,18C123,12.477 118.523,8 113,8C112.335,8 111.665,8 111,8C105.477,8 101,12.477 101,18C101,18 101,18 101,18C101,23.523 105.477,28 111,28C111.665,28 112.335,28 113,28C118.523,28 123,23.523 123,18C123,18 123,18 123,18Z" style="fill:rgb(31,40,51);stroke:rgb(31,40,51);stroke-width:6.67px;stroke-linecap:round;"/>
            </g>
            <g transform="matrix(1,0,0,1,0.143144,-6)">
                <rect x="168" y="230" width="7.739" height="6" style="fill:rgb(31,40,51);stroke:rgb(31,40,51);stroke-width:4px;stroke-linejoin:miter;"/>
            </g>
            <g transform="matrix(1.21538,0,0,0.77451,-20.0977,31.7843)">
                <path d="M168.261,274L168,376" style="fill:none;stroke:rgb(31,40,51);stroke-width:3.93px;stroke-linejoin:miter;"/>
            </g>
            <g transform="matrix(1.15976,0,0,1.15976,-29.0933,-40.2249)">
                <path d="M184.087,244L176.739,233" style="fill:none;stroke:rgb(31,40,51);stroke-width:3.45px;stroke-linecap:round;stroke-linejoin:bevel;"/>
            </g>
        </g>
        <g transform="matrix(1,0,0,1,31.8569,0)">
            <g transform="matrix(0.6,0,0,0.6,117.204,319.443)">
                <path d="M123,18C123,12.477 118.523,8 113,8C112.335,8 111.665,8 111,8C105.477,8 101,12.477 101,18C101,18 101,18 101,18C101,23.523 105.477,28 111,28C111.665,28 112.335,28 113,28C118.523,28 123,23.523 123,18C123,18 123,18 123,18Z" style="fill:rgb(31,40,51);stroke:rgb(31,40,51);stroke-width:6.67px;stroke-linecap:round;"/>
            </g>
            <g transform="matrix(1,0,0,1,0.143144,-6)">
                <rect x="168" y="230" width="7.739" height="6" style="fill:rgb(31,40,51);stroke:rgb(31,40,51);stroke-width:4px;stroke-linejoin:miter;"/>
            </g>
            <g transform="matrix(1.21538,0,0,0.77451,-20.0977,31.7843)">
                <path d="M168.261,274L168,376" style="fill:none;stroke:rgb(31,40,51);stroke-width:3.93px;stroke-linejoin:miter;"/>
            </g>
            <g transform="matrix(1.15976,0,0,1.15976,-29.0933,-40.2249)">
                <path d="M184.087,244L176.739,233" style="fill:none;stroke:rgb(31,40,51);stroke-width:3.45px;stroke-linecap:round;stroke-linejoin:bevel;"/>
            </g>
        </g>
        <g transform="matrix(0.6,0,0,0.6,116.4,51.2)">
            <path d="M123,18C123,12.477 118.523,8 113,8C112.335,8 111.665,8 111,8C105.477,8 101,12.477 101,18C101,18 101,18 101,18C101,23.523 105.477,28 111,28C111.665,28 112.335,28 113,28C118.523,28 123,23.523 123,18C123,18 123,18 123,18Z" style="fill:rgb(31,40,51);stroke:rgb(31,40,51);stroke-width:6.67px;stroke-linecap:round;"/>
        </g>
        <g transform="matrix(0.6,0,0,0.6,148.4,51.2)">
            <path d="M123,18C123,12.477 118.523,8 113,8C112.335,8 111.665,8 111,8C105.477,8 101,12.477 101,18C101,18 101,18 101,18C101,23.523 105.477,28 111,28C111.665,28 112.335,28 113,28C118.523,28 123,23.523 123,18C123,18 123,18 123,18Z" style="fill:rgb(31,40,51);stroke:rgb(31,40,51);stroke-width:6.67px;stroke-linecap:round;"/>
        </g>
        <g>
            <g transform="matrix(0.852174,0,0,0.852174,18.6261,30.5652)">
                <path d="M126,200L116,210L11,210" style="fill:none;stroke:rgb(31,40,51);stroke-width:4.69px;stroke-linecap:round;"/>
            </g>
            <g transform="matrix(6.12323e-17,1,-1,6.12323e-17,161.739,187.261)">
                <path d="M22,129.478L28,138L16,138L22,129.478Z" style="fill:rgb(31,40,51);stroke:rgb(31,40,51);stroke-width:4px;stroke-linecap:round;"/>
            </g>
        </g>
        <path d="M136,146L136,158" style="fill:none;stroke:rgb(31,40,51);stroke-width:4px;stroke-linecap:round;"/>
        <g transform="matrix(6.12323e-17,-1,1,6.12323e-17,3.55271e-15,274)">
            <path d="M136,146L136,158" style="fill:none;stroke:rgb(31,40,51);stroke-width:4px;stroke-linecap:round;"/>
        </g>
        <g transform="matrix(6.12323e-17,-1,1,6.12323e-17,3.55271e-15,400)">
            <path d="M136,146L136,158" style="fill:none;stroke:rgb(31,40,51);stroke-width:4px;stroke-linecap:round;"/>
        </g>
        <g transform="matrix(6.12323e-17,-1,1,6.12323e-17,32,400)">
            <path d="M136,146L136,158" style="fill:none;stroke:rgb(31,40,51);stroke-width:4px;stroke-linecap:round;"/>
        </g>
        <g transform="matrix(6.12323e-17,-1,1,6.12323e-17,64,400)">
            <path d="M136,146L136,158" style="fill:none;stroke:rgb(31,40,51);stroke-width:4px;stroke-linecap:round;"/>
        </g>
        <g transform="matrix(6.12323e-17,-1,1,6.12323e-17,96,400)">
            <path d="M136,146L136,158" style="fill:none;stroke:rgb(31,40,51);stroke-width:4px;stroke-linecap:round;"/>
        </g>
        <g transform="matrix(6.12323e-17,-1,1,6.12323e-17,32,274)">
            <path d="M136,146L136,158" style="fill:none;stroke:rgb(31,40,51);stroke-width:4px;stroke-linecap:round;"/>
        </g>
        <g transform="matrix(1,0,0,1,128,0)">
            <path d="M136,146L136,158" style="fill:none;stroke:rgb(31,40,51);stroke-width:4px;stroke-linecap:round;"/>
        </g>
        <g transform="matrix(1,0,0,1,128,32)">
            <path d="M136,146L136,158" style="fill:none;stroke:rgb(31,40,51);stroke-width:4px;stroke-linecap:round;"/>
        </g>
        <g transform="matrix(1,0,0,1,128,64)">
            <path d="M136,146L136,158" style="fill:none;stroke:rgb(31,40,51);stroke-width:4px;stroke-linecap:round;"/>
        </g>
        <g transform="matrix(1,0,0,1,0,32)">
            <path d="M136,146L136,158" style="fill:none;stroke:rgb(31,40,51);stroke-width:4px;stroke-linecap:round;"/>
        </g>
        <g transform="matrix(1,0,0,1,0,64)">
            <path d="M136,146L136,158" style="fill:none;stroke:rgb(31,40,51);stroke-width:4px;stroke-linecap:round;"/>
        </g>
        <g transform="matrix(1,0,0,1,0,96)">
            <path d="M136,146L136,158" style="fill:none;stroke:rgb(31,40,51);stroke-width:4px;stroke-linecap:round;"/>
        </g>
        <g transform="matrix(1,0,0,1,128,96)">
            <path d="M136,146L136,158" style="fill:none;stroke:rgb(31,40,51);stroke-width:4px;stroke-linecap:round;"/>
        </g>
        <g transform="matrix(6.12323e-17,-1,1,6.12323e-17,64,274)">
            <path d="M136,146L136,158" style="fill:none;stroke:rgb(31,40,51);stroke-width:4px;stroke-linecap:round;"/>
        </g>
        <g transform="matrix(6.12323e-17,-1,1,6.12323e-17,96,274)">
            <path d="M136,146L136,158" style="fill:none;stroke:rgb(31,40,51);stroke-width:4px;stroke-linecap:round;"/>
        </g>
        <g>
            <g transform="matrix(0.852174,0,0,0.852174,18.6261,63.5652)">
                <path d="M126,200L116,210L11,210" style="fill:none;stroke:rgb(31,40,51);stroke-width:4.69px;stroke-linecap:round;"/>
            </g>
            <g transform="matrix(6.12323e-17,1,-1,6.12323e-17,161.739,220.261)">
                <path d="M22,129.478L28,138L16,138L22,129.478Z" style="fill:rgb(31,40,51);stroke:rgb(31,40,51);stroke-width:4px;stroke-linecap:round;"/>
            </g>
        </g>
        <g>
            <g transform="matrix(0.852174,0,0,0.852174,18.6261,96.5652)">
                <path d="M126,200L116,210L11,210" style="fill:none;stroke:rgb(31,40,51);stroke-width:4.69px;stroke-linecap:round;"/>
            </g>
            <g transform="matrix(6.12323e-17,1,-1,6.12323e-17,161.739,253.522)">
                <path d="M22,129.478L28,138L16,138L22,129.478Z" style="fill:rgb(31,40,51);stroke:rgb(31,40,51);stroke-width:4px;stroke-linecap:round;"/>
            </g>
        </g>
        <g transform="matrix(-1,-1.22465e-16,1.22465e-16,-1,400,467)">
            <g transform="matrix(0.852174,0,0,0.852174,18.6261,63.5652)">
                <path d="M126,200L116,210L11,210" style="fill:none;stroke:rgb(31,40,51);stroke-width:4.69px;stroke-linecap:round;"/>
            </g>
            <g transform="matrix(6.12323e-17,1,-1,6.12323e-17,157.739,220.261)">
                <path d="M22,129.478L28,138L16,138L22,129.478Z" style="fill:rgb(31,40,51);stroke:rgb(31,40,51);stroke-width:4px;stroke-linecap:round;"/>
            </g>
        </g>
        <g transform="matrix(-1,-1.22465e-16,1.22465e-16,-1,400,400.522)">
            <g transform="matrix(0.852174,0,0,0.852174,18.6261,96.5652)">
                <path d="M126,200L116,210L11,210" style="fill:none;stroke:rgb(31,40,51);stroke-width:4.69px;stroke-linecap:round;"/>
            </g>
            <g transform="matrix(6.12323e-17,1,-1,6.12323e-17,157.739,253.522)">
                <path d="M22,129.478L28,138L16,138L22,129.478Z" style="fill:rgb(31,40,51);stroke:rgb(31,40,51);stroke-width:4px;stroke-linecap:round;"/>
            </g>
        </g>
        <g transform="matrix(-1,-1.22465e-16,1.22465e-16,-1,400,433.783)">
            <g transform="matrix(0.852174,0,0,0.852174,18.6261,96.5652)">
                <path d="M126,200L116,210L11,210" style="fill:none;stroke:rgb(31,40,51);stroke-width:4.69px;stroke-linecap:round;"/>
            </g>
            <g transform="matrix(6.12323e-17,1,-1,6.12323e-17,157.739,253.522)">
                <path d="M22,129.478L28,138L16,138L22,129.478Z" style="fill:rgb(31,40,51);stroke:rgb(31,40,51);stroke-width:4px;stroke-linecap:round;"/>
            </g>
        </g>
        <g transform="matrix(-1,-1.22465e-16,1.22465e-16,-1,400,467)">
            <g transform="matrix(0.852174,0,0,0.852174,18.6261,96.5652)">
                <path d="M126,200L116,210L11,210" style="fill:none;stroke:rgb(31,40,51);stroke-width:4.69px;stroke-linecap:round;"/>
            </g>
            <g transform="matrix(6.12323e-17,1,-1,6.12323e-17,157.739,253.522)">
                <path d="M22,129.478L28,138L16,138L22,129.478Z" style="fill:rgb(31,40,51);stroke:rgb(31,40,51);stroke-width:4px;stroke-linecap:round;"/>
            </g>
        </g>
        <g transform="matrix(-1.56542e-16,0.852174,-0.852174,-1.56542e-16,331.217,59.6261)">
            <path d="M126,200L116,210L11,210" style="fill:none;stroke:rgb(31,40,51);stroke-width:4.69px;stroke-linecap:round;"/>
        </g>
        <g transform="matrix(-1,-1.22465e-16,1.22465e-16,-1,336.261,403)">
            <rect x="168" y="230" width="7.739" height="6" style="fill:rgb(31,40,51);stroke:rgb(31,40,51);stroke-width:4px;stroke-linejoin:miter;"/>
        </g>
        <g transform="matrix(-1.56542e-16,0.852174,-0.852174,-1.56542e-16,362.957,59.6261)">
            <path d="M126,200L116,210L11,210" style="fill:none;stroke:rgb(31,40,51);stroke-width:4.69px;stroke-linecap:round;"/>
        </g>
        <g transform="matrix(-1,-1.22465e-16,1.22465e-16,-1,368,403)">
            <rect x="168" y="230" width="7.739" height="6" style="fill:rgb(31,40,51);stroke:rgb(31,40,51);stroke-width:4px;stroke-linejoin:miter;"/>
        </g>
        <path d="M168.261,274L168,376" style="fill:none;stroke:rgb(31,40,51);stroke-width:4px;stroke-linejoin:miter;"/>
        <g transform="matrix(1.56923,0,0,1,-63.7793,-2.50111e-12)">
            <path d="M168.261,274L168,376" style="fill:none;stroke:rgb(31,40,51);stroke-width:3.04px;stroke-linejoin:miter;"/>
        </g>
        <g transform="matrix(1,0,0,1,63.4373,-6.7466e-11)">
            <path d="M168.261,274L168,376" style="fill:none;stroke:rgb(31,40,51);stroke-width:4px;stroke-linejoin:miter;"/>
        </g>
        <g transform="matrix(-1.56542e-16,0.852174,-0.852174,-1.56542e-16,395.478,59.6261)">
            <path d="M126,200L116,210L11,210" style="fill:none;stroke:rgb(31,40,51);stroke-width:4.69px;stroke-linecap:round;"/>
        </g>
        <g transform="matrix(-1,-1.22465e-16,1.22465e-16,-1,400.522,403)">
            <rect x="168" y="230" width="7.739" height="6" style="fill:rgb(31,40,51);stroke:rgb(31,40,51);stroke-width:4px;stroke-linejoin:miter;"/>
        </g>
        <g transform="matrix(1,0,0,1,96.2,3)">
            <path d="M136,123L136,40" style="fill:none;stroke:rgb(31,40,51);stroke-width:4px;stroke-linecap:round;"/>
        </g>
        <g transform="matrix(0.818182,0,0,0.833333,120.927,7.16667)">
            <path d="M136,43L114,19" style="fill:none;stroke:rgb(31,40,51);stroke-width:4.84px;stroke-linecap:round;"/>
        </g>
        <g transform="matrix(0.6,0,0,0.6,140.4,6.2)">
            <path d="M123,18C123,12.477 118.523,8 113,8C112.335,8 111.665,8 111,8C105.477,8 101,12.477 101,18C101,18 101,18 101,18C101,23.523 105.477,28 111,28C111.665,28 112.335,28 113,28C118.523,28 123,23.523 123,18C123,18 123,18 123,18Z" style="fill:none;stroke:rgb(31,40,51);stroke-width:6.67px;stroke-linecap:round;"/>
        </g>
        <g transform="matrix(1,0,0,1,127.4,3)">
            <path d="M136,123L136,40" style="fill:none;stroke:rgb(31,40,51);stroke-width:4px;stroke-linecap:round;"/>
        </g>
        <g transform="matrix(0.818182,0,0,0.833333,152.127,7.16667)">
            <path d="M136,43L114,19" style="fill:none;stroke:rgb(31,40,51);stroke-width:4.84px;stroke-linecap:round;"/>
        </g>
        <g transform="matrix(0.6,0,0,0.6,171.6,6.2)">
            <path d="M123,18C123,12.477 118.523,8 113,8C112.335,8 111.665,8 111,8C105.477,8 101,12.477 101,18C101,18 101,18 101,18C101,23.523 105.477,28 111,28C111.665,28 112.335,28 113,28C118.523,28 123,23.523 123,18C123,18 123,18 123,18Z" style="fill:none;stroke:rgb(31,40,51);stroke-width:6.67px;stroke-linecap:round;"/>
        </g>
        <g transform="matrix(1,0,0,1,63.7137,0)">
            <g transform="matrix(0.6,0,0,0.6,117.204,319.443)">
                <path d="M123,18C123,12.477 118.523,8 113,8C112.335,8 111.665,8 111,8C105.477,8 101,12.477 101,18C101,18 101,18 101,18C101,23.523 105.477,28 111,28C111.665,28 112.335,28 113,28C118.523,28 123,23.523 123,18C123,18 123,18 123,18Z" style="fill:rgb(31,40,51);stroke:rgb(31,40,51);stroke-width:6.67px;stroke-linecap:round;"/>
            </g>
            <g transform="matrix(1,0,0,1,0.143144,-6)">
                <rect x="168" y="230" width="7.739" height="6" style="fill:rgb(31,40,51);stroke:rgb(31,40,51);stroke-width:4px;stroke-linejoin:miter;"/>
            </g>
            <g transform="matrix(1.21538,0,0,0.77451,-20.0977,31.7843)">
                <path d="M168.261,274L168,376" style="fill:none;stroke:rgb(31,40,51);stroke-width:3.93px;stroke-linejoin:miter;"/>
            </g>
            <g transform="matrix(1.15976,0,0,1.15976,-29.0933,-40.2249)">
                <path d="M184.087,244L176.739,233" style="fill:none;stroke:rgb(31,40,51);stroke-width:3.45px;stroke-linecap:round;stroke-linejoin:bevel;"/>
            </g>
        </g>
    </g>
</svg>
