<?xml version="1.0" encoding="UTF-8" standalone="no"?>
<!DOCTYPE svg PUBLIC "-//W3C//DTD SVG 1.1//EN" "http://www.w3.org/Graphics/SVG/1.1/DTD/svg11.dtd">
<svg width="100%" height="100%" viewBox="0 0 400 400" version="1.1" xmlns="http://www.w3.org/2000/svg" xmlns:xlink="http://www.w3.org/1999/xlink" xml:space="preserve" xmlns:serif="http://www.serif.com/" style="fill-rule:evenodd;clip-rule:evenodd;stroke-linecap:round;stroke-linejoin:round;stroke-miterlimit:1.5;">
    <g id="Icon-1" serif:id="Icon 1" transform="matrix(0.769886,0,0,1,45.2528,20.9557)">
        <g transform="matrix(1,0,0,1,1.5,13.9557)">
            <g transform="matrix(-1,0,0,1,403,48.8608)">
                <path d="M27,97C43.371,87.52 57.562,86.775 69.075,96.76C80.581,90.805 90.956,88.811 98.538,96.591C105.239,89.933 112.174,86.665 120.011,96.469C125.552,87.863 129.198,91.142 132.529,96.397C143.571,90.644 154.302,87.314 163.466,96.22C175.656,91.296 188.321,88.906 202.768,95.996C215.108,88.093 228.439,86.634 246.134,95.748C253.54,90.483 261.65,89.74 270.791,95.607C281.667,84.234 289.794,85.301 295.91,95.463C309.914,89.682 323.179,87.665 334.559,95.243C340.102,91.304 346.064,87.97 359.247,95.101C363.187,89.271 369.407,90.126 377,95" style="fill:none;stroke:rgb(118,118,118);stroke-width:6.72px;"/>
            </g>
            <g transform="matrix(1,0,0,1,-1,26.3165)">
                <path d="M27,97C43.371,87.52 57.562,86.775 69.075,96.76C80.581,90.805 90.956,88.811 98.538,96.591C105.239,89.933 112.174,86.665 120.011,96.469C125.552,87.863 129.198,91.142 132.529,96.397C143.571,90.644 154.302,87.314 163.466,96.22C175.656,91.296 188.321,88.906 202.768,95.996C215.108,88.093 228.439,86.634 246.134,95.748C253.54,90.483 261.65,89.74 270.791,95.607C281.667,84.234 289.794,85.301 295.91,95.463C309.914,89.682 323.179,87.665 334.559,95.243C340.102,91.304 346.064,87.97 359.247,95.101C363.187,89.271 369.407,90.126 377,95" style="fill:none;stroke:rgb(0,137,33);stroke-width:6.72px;"/>
            </g>
            <g transform="matrix(1,0,0,1,-3,71.4052)">
                <path d="M27,97C43.371,87.52 57.562,86.775 69.075,96.76C80.581,90.805 90.956,88.811 98.538,96.591C105.239,89.933 112.174,86.665 120.011,96.469C125.552,87.863 129.198,91.142 132.529,96.397C143.571,90.644 154.302,87.314 163.466,96.22C175.656,91.296 188.321,88.906 202.768,95.996C215.108,88.093 228.439,86.634 246.134,95.748C253.54,90.483 261.65,89.74 270.791,95.607C281.667,84.234 289.794,85.301 295.91,95.463C309.914,89.682 323.179,87.665 334.559,95.243C340.102,91.304 346.064,87.97 359.247,95.101C363.187,89.271 369.407,90.126 377,95" style="fill:none;stroke:rgb(118,118,118);stroke-width:6.72px;"/>
            </g>
            <g transform="matrix(-1,0,0,1,401,93.9495)">
                <path d="M27,97C43.371,87.52 57.562,86.775 69.075,96.76C80.581,90.805 90.956,88.811 98.538,96.591C105.239,89.933 112.174,86.665 120.011,96.469C125.552,87.863 129.198,91.142 132.529,96.397C143.571,90.644 154.302,87.314 163.466,96.22C175.656,91.296 188.321,88.906 202.768,95.996C215.108,88.093 228.439,86.634 246.134,95.748C253.54,90.483 261.65,89.74 270.791,95.607C281.667,84.234 289.794,85.301 295.91,95.463C309.914,89.682 323.179,87.665 334.559,95.243C340.102,91.304 346.064,87.97 359.247,95.101C363.187,89.271 369.407,90.126 377,95" style="fill:none;stroke:rgb(118,118,118);stroke-width:6.72px;"/>
            </g>
            <g transform="matrix(1,0,0,1,-3,116.494)">
                <path d="M27,97C43.371,87.52 57.562,86.775 69.075,96.76C80.581,90.805 90.956,88.811 98.538,96.591C105.239,89.933 112.174,86.665 120.011,96.469C125.552,87.863 129.198,91.142 132.529,96.397C143.571,90.644 154.302,87.314 163.466,96.22C175.656,91.296 188.321,88.906 202.768,95.996C215.108,88.093 228.439,86.634 246.134,95.748C253.54,90.483 261.65,89.74 270.791,95.607C281.667,84.234 289.794,85.301 295.91,95.463C309.914,89.682 323.179,87.665 334.559,95.243C340.102,91.304 346.064,87.97 359.247,95.101C363.187,89.271 369.407,90.126 377,95" style="fill:none;stroke:rgb(118,118,118);stroke-width:6.72px;"/>
            </g>
            <g transform="matrix(1,0,0,1,4.26326e-14,-60.4557)">
                <path d="M27,97C43.371,87.52 57.562,86.775 69.075,96.76C80.581,90.805 90.956,88.811 98.538,96.591C105.239,89.933 112.174,86.665 120.011,96.469C125.552,87.863 129.198,91.142 132.529,96.397C143.571,90.644 154.302,87.314 163.466,96.22C175.656,91.296 188.321,88.906 202.768,95.996C215.108,88.093 228.439,86.634 246.134,95.748C253.54,90.483 261.65,89.74 270.791,95.607C281.667,84.234 289.794,85.301 295.91,95.463C309.914,89.682 323.179,87.665 334.559,95.243C340.102,91.304 346.064,87.97 359.247,95.101C363.187,89.271 369.407,90.126 377,95" style="fill:none;stroke:rgb(118,118,118);stroke-width:6.72px;"/>
            </g>
            <g transform="matrix(-1,0,0,1,404,-37.9113)">
                <path d="M27,97C43.371,87.52 57.562,86.775 69.075,96.76C80.581,90.805 90.956,88.811 98.538,96.591C105.239,89.933 112.174,86.665 120.011,96.469C125.552,87.863 129.198,91.142 132.529,96.397C143.571,90.644 154.302,87.314 163.466,96.22C175.656,91.296 188.321,88.906 202.768,95.996C215.108,88.093 228.439,86.634 246.134,95.748C253.54,90.483 261.65,89.74 270.791,95.607C281.667,84.234 289.794,85.301 295.91,95.463C309.914,89.682 323.179,87.665 334.559,95.243C340.102,91.304 346.064,87.97 359.247,95.101C363.187,89.271 369.407,90.126 377,95" style="fill:none;stroke:rgb(118,118,118);stroke-width:6.72px;"/>
            </g>
            <g transform="matrix(1,0,0,1,4.26326e-14,-15.367)">
                <path d="M27,97C43.371,87.52 57.562,86.775 69.075,96.76C80.581,90.805 90.956,88.811 98.538,96.591C105.239,89.933 112.174,86.665 120.011,96.469C125.552,87.863 129.198,91.142 132.529,96.397C143.571,90.644 154.302,87.314 163.466,96.22C175.656,91.296 188.321,88.906 202.768,95.996C215.108,88.093 228.439,86.634 246.134,95.748C253.54,90.483 261.65,89.74 270.791,95.607C281.667,84.234 289.794,85.301 295.91,95.463C309.914,89.682 323.179,87.665 334.559,95.243C340.102,91.304 346.064,87.97 359.247,95.101C363.187,89.271 369.407,90.126 377,95" style="fill:none;stroke:rgb(118,118,118);stroke-width:6.72px;"/>
            </g>
            <g transform="matrix(-1,0,0,1,401,161.089)">
                <path d="M27,97C43.371,87.52 57.562,86.775 69.075,96.76C80.581,90.805 90.956,88.811 98.538,96.591C105.239,89.933 112.174,86.665 120.011,96.469C125.552,87.863 129.198,91.142 132.529,96.397C143.571,90.644 154.302,87.314 163.466,96.22C175.656,91.296 188.321,88.906 202.768,95.996C215.108,88.093 228.439,86.634 246.134,95.748C253.54,90.483 261.65,89.74 270.791,95.607C281.667,84.234 289.794,85.301 295.91,95.463C309.914,89.682 323.179,87.665 334.559,95.243C340.102,91.304 346.064,87.97 359.247,95.101C363.187,89.271 369.407,90.126 377,95" style="fill:none;stroke:rgb(118,118,118);stroke-width:6.72px;"/>
            </g>
            <g transform="matrix(1,0,0,1,-3,183.633)">
                <path d="M27,97C43.371,87.52 57.562,86.775 69.075,96.76C80.581,90.805 90.956,88.811 98.538,96.591C105.239,89.933 112.174,86.665 120.011,96.469C125.552,87.863 129.198,91.142 132.529,96.397C143.571,90.644 154.302,87.314 163.466,96.22C175.656,91.296 188.321,88.906 202.768,95.996C215.108,88.093 228.439,86.634 246.134,95.748C253.54,90.483 261.65,89.74 270.791,95.607C281.667,84.234 289.794,85.301 295.91,95.463C309.914,89.682 323.179,87.665 334.559,95.243C340.102,91.304 346.064,87.97 359.247,95.101C363.187,89.271 369.407,90.126 377,95" style="fill:none;stroke:rgb(118,118,118);stroke-width:6.72px;"/>
            </g>
            <g transform="matrix(-1,0,0,1,403,206.177)">
                <path d="M27,97C43.371,87.52 57.562,86.775 69.075,96.76C80.581,90.805 90.956,88.811 98.538,96.591C105.239,89.933 112.174,86.665 120.011,96.469C125.552,87.863 129.198,91.142 132.529,96.397C143.571,90.644 154.302,87.314 163.466,96.22C175.656,91.296 188.321,88.906 202.768,95.996C215.108,88.093 228.439,86.634 246.134,95.748C253.54,90.483 261.65,89.74 270.791,95.607C281.667,84.234 289.794,85.301 295.91,95.463C309.914,89.682 323.179,87.665 334.559,95.243C340.102,91.304 346.064,87.97 359.247,95.101C363.187,89.271 369.407,90.126 377,95" style="fill:none;stroke:rgb(118,118,118);stroke-width:6.72px;"/>
            </g>
        </g>
        <g transform="matrix(1.29889,0,0,1,-59.0775,-25.9557)">
            <path d="M372.356,28.5L372.424,28.502L372.49,28.504L372.557,28.507L372.623,28.511L372.69,28.515L372.756,28.521L372.821,28.527L372.887,28.534L372.954,28.542L373.082,28.56L373.211,28.581L373.339,28.606L373.466,28.633L373.591,28.664L373.715,28.698L373.839,28.734L373.96,28.774L374.081,28.816L374.2,28.862L374.318,28.91L374.434,28.961L374.549,29.014L374.662,29.07L374.773,29.129L374.883,29.191L374.992,29.255L375.098,29.321L375.203,29.39L375.306,29.462L375.407,29.535L375.507,29.612L375.604,29.69L375.699,29.771L375.793,29.854L375.884,29.939L375.974,30.026L376.061,30.116L376.146,30.207L376.229,30.301L376.31,30.396L376.388,30.493L376.465,30.593L376.538,30.694L376.61,30.797L376.679,30.902L376.745,31.008L376.809,31.117L376.871,31.227L376.93,31.338L376.986,31.451L377.04,31.566L377.09,31.682L377.138,31.8L377.184,31.919L377.226,32.04L377.266,32.161L377.302,32.285L377.336,32.409L377.367,32.534L377.394,32.661L377.419,32.789L377.44,32.918L377.458,33.046L377.466,33.113L377.473,33.179L377.479,33.244L377.485,33.31L377.489,33.377L377.493,33.443L377.496,33.51L377.498,33.576L377.5,33.644L377.5,33.709L377.5,376.291L377.5,376.356L377.498,376.424L377.496,376.49L377.493,376.557L377.489,376.623L377.485,376.69L377.479,376.756L377.473,376.821L377.466,376.887L377.458,376.954L377.44,377.082L377.419,377.211L377.394,377.339L377.367,377.466L377.336,377.591L377.302,377.715L377.266,377.839L377.226,377.96L377.184,378.081L377.138,378.2L377.09,378.318L377.04,378.434L376.986,378.549L376.93,378.662L376.871,378.773L376.809,378.883L376.745,378.992L376.679,379.098L376.61,379.203L376.538,379.306L376.465,379.407L376.388,379.507L376.31,379.604L376.229,379.7L376.146,379.793L376.061,379.884L375.974,379.974L375.884,380.061L375.793,380.146L375.699,380.229L375.604,380.31L375.507,380.388L375.407,380.465L375.306,380.538L375.203,380.61L375.098,380.679L374.992,380.745L374.883,380.809L374.773,380.871L374.662,380.93L374.549,380.986L374.434,381.039L374.318,381.09L374.2,381.138L374.081,381.184L373.96,381.226L373.839,381.266L373.715,381.302L373.591,381.336L373.466,381.367L373.339,381.394L373.211,381.419L373.082,381.44L372.954,381.458L372.887,381.466L372.821,381.473L372.756,381.479L372.69,381.485L372.623,381.489L372.557,381.493L372.49,381.496L372.424,381.498L372.356,381.5L372.291,381.5L29.709,381.5L29.644,381.5L29.576,381.498L29.51,381.496L29.443,381.493L29.377,381.489L29.31,381.485L29.244,381.479L29.179,381.473L29.113,381.466L29.046,381.458L28.918,381.44L28.789,381.419L28.661,381.394L28.534,381.367L28.409,381.336L28.285,381.302L28.161,381.266L28.04,381.226L27.919,381.184L27.8,381.138L27.682,381.09L27.566,381.039L27.451,380.986L27.338,380.93L27.227,380.871L27.117,380.809L27.008,380.745L26.902,380.679L26.797,380.61L26.694,380.538L26.593,380.465L26.493,380.388L26.396,380.31L26.301,380.229L26.207,380.146L26.116,380.061L26.026,379.974L25.939,379.884L25.854,379.793L25.771,379.699L25.69,379.604L25.612,379.507L25.535,379.407L25.462,379.306L25.39,379.203L25.321,379.098L25.255,378.992L25.191,378.883L25.129,378.773L25.07,378.662L25.014,378.549L24.96,378.434L24.91,378.318L24.862,378.2L24.816,378.081L24.774,377.96L24.734,377.839L24.698,377.715L24.664,377.591L24.633,377.466L24.606,377.339L24.581,377.211L24.56,377.082L24.542,376.954L24.534,376.887L24.527,376.821L24.521,376.756L24.515,376.69L24.511,376.623L24.507,376.557L24.504,376.49L24.502,376.424L24.5,376.356L24.5,376.291L24.5,33.709L24.5,33.644L24.502,33.576L24.504,33.51L24.507,33.443L24.511,33.377L24.515,33.31L24.521,33.244L24.527,33.179L24.534,33.113L24.542,33.046L24.56,32.918L24.581,32.789L24.606,32.661L24.633,32.534L24.664,32.409L24.698,32.285L24.734,32.161L24.774,32.04L24.816,31.919L24.862,31.8L24.91,31.682L24.961,31.566L25.014,31.451L25.07,31.338L25.129,31.227L25.191,31.117L25.255,31.008L25.321,30.902L25.39,30.797L25.462,30.694L25.535,30.593L25.612,30.493L25.69,30.396L25.771,30.301L25.854,30.207L25.939,30.116L26.026,30.026L26.116,29.939L26.207,29.854L26.301,29.771L26.396,29.69L26.493,29.612L26.593,29.535L26.694,29.462L26.797,29.39L26.902,29.321L27.008,29.255L27.117,29.191L27.227,29.129L27.338,29.07L27.451,29.014L27.566,28.96L27.682,28.91L27.8,28.862L27.919,28.816L28.04,28.774L28.161,28.734L28.285,28.698L28.409,28.664L28.534,28.633L28.661,28.606L28.789,28.581L28.918,28.56L29.046,28.542L29.113,28.534L29.179,28.527L29.244,28.521L29.31,28.515L29.377,28.511L29.443,28.507L29.51,28.504L29.577,28.502L29.644,28.5L29.709,28.5L372.291,28.5L372.356,28.5ZM29.712,29.5L29.656,29.5L29.602,29.501L29.548,29.503L29.494,29.505L29.44,29.509L29.386,29.512L29.333,29.517L29.28,29.522L29.227,29.527L29.175,29.534L29.069,29.549L28.965,29.566L28.862,29.586L28.759,29.608L28.658,29.633L28.558,29.66L28.458,29.689L28.36,29.721L28.263,29.755L28.167,29.792L28.072,29.831L27.978,29.872L27.885,29.915L27.794,29.96L27.704,30.008L27.615,30.058L27.528,30.109L27.442,30.163L27.357,30.219L27.274,30.277L27.192,30.336L27.111,30.398L27.033,30.461L26.955,30.527L26.88,30.594L26.806,30.663L26.733,30.733L26.663,30.806L26.594,30.88L26.527,30.955L26.461,31.033L26.398,31.111L26.336,31.192L26.277,31.274L26.219,31.357L26.163,31.442L26.109,31.528L26.058,31.615L26.008,31.704L25.96,31.794L25.915,31.885L25.872,31.978L25.831,32.072L25.792,32.167L25.755,32.263L25.721,32.36L25.689,32.458L25.66,32.558L25.633,32.658L25.608,32.759L25.586,32.862L25.566,32.965L25.549,33.069L25.534,33.175L25.527,33.227L25.522,33.28L25.517,33.333L25.512,33.386L25.509,33.44L25.505,33.494L25.503,33.548L25.501,33.602L25.5,33.656L25.5,33.712L25.5,376.288L25.5,376.344L25.501,376.398L25.503,376.452L25.505,376.506L25.509,376.56L25.512,376.614L25.517,376.667L25.522,376.72L25.527,376.773L25.534,376.825L25.549,376.931L25.566,377.035L25.586,377.138L25.608,377.241L25.633,377.342L25.66,377.442L25.689,377.542L25.721,377.64L25.755,377.737L25.792,377.833L25.831,377.928L25.872,378.022L25.915,378.115L25.96,378.206L26.008,378.296L26.058,378.385L26.109,378.472L26.163,378.558L26.219,378.643L26.277,378.726L26.336,378.808L26.398,378.889L26.461,378.967L26.527,379.045L26.594,379.12L26.663,379.194L26.733,379.267L26.806,379.337L26.88,379.406L26.955,379.473L27.033,379.539L27.111,379.602L27.192,379.664L27.274,379.723L27.357,379.781L27.442,379.837L27.528,379.891L27.615,379.942L27.704,379.992L27.794,380.04L27.885,380.085L27.978,380.128L28.072,380.169L28.167,380.208L28.263,380.245L28.36,380.279L28.458,380.311L28.558,380.34L28.658,380.367L28.759,380.392L28.862,380.414L28.965,380.434L29.069,380.451L29.175,380.466L29.227,380.473L29.28,380.478L29.333,380.483L29.386,380.488L29.44,380.491L29.494,380.495L29.548,380.497L29.602,380.499L29.656,380.5L29.712,380.5L372.288,380.5L372.344,380.5L372.398,380.499L372.452,380.497L372.506,380.495L372.56,380.491L372.614,380.488L372.667,380.483L372.72,380.478L372.773,380.473L372.825,380.466L372.931,380.451L373.035,380.434L373.138,380.414L373.241,380.392L373.342,380.367L373.442,380.34L373.542,380.311L373.64,380.279L373.737,380.245L373.833,380.208L373.928,380.169L374.022,380.128L374.115,380.085L374.206,380.04L374.296,379.992L374.385,379.942L374.472,379.891L374.558,379.837L374.643,379.781L374.726,379.723L374.808,379.664L374.889,379.602L374.967,379.539L375.045,379.473L375.12,379.406L375.194,379.337L375.267,379.267L375.337,379.194L375.406,379.12L375.473,379.045L375.539,378.967L375.602,378.889L375.664,378.808L375.723,378.726L375.781,378.643L375.837,378.558L375.891,378.472L375.942,378.385L375.992,378.296L376.04,378.206L376.085,378.115L376.128,378.022L376.169,377.928L376.208,377.833L376.245,377.737L376.279,377.64L376.311,377.542L376.34,377.442L376.367,377.342L376.392,377.241L376.414,377.138L376.434,377.035L376.451,376.931L376.466,376.825L376.472,376.773L376.478,376.72L376.483,376.667L376.488,376.614L376.491,376.56L376.494,376.506L376.497,376.452L376.499,376.398L376.5,376.344L376.5,376.288L376.5,33.712L376.5,33.656L376.499,33.602L376.497,33.548L376.494,33.494L376.491,33.44L376.488,33.386L376.483,33.333L376.478,33.28L376.472,33.227L376.466,33.175L376.451,33.069L376.434,32.965L376.414,32.862L376.392,32.759L376.367,32.658L376.34,32.558L376.311,32.458L376.279,32.36L376.245,32.263L376.208,32.167L376.169,32.072L376.128,31.978L376.085,31.885L376.04,31.794L375.992,31.704L375.942,31.615L375.891,31.528L375.837,31.442L375.781,31.357L375.723,31.274L375.664,31.192L375.602,31.111L375.539,31.033L375.473,30.955L375.406,30.88L375.337,30.806L375.267,30.733L375.194,30.663L375.12,30.594L375.045,30.527L374.967,30.461L374.889,30.398L374.808,30.336L374.726,30.277L374.643,30.219L374.558,30.163L374.472,30.109L374.385,30.058L374.296,30.008L374.206,29.96L374.115,29.915L374.022,29.872L373.928,29.831L373.833,29.792L373.737,29.755L373.64,29.721L373.542,29.689L373.442,29.66L373.342,29.633L373.241,29.608L373.138,29.586L373.035,29.566L372.931,29.549L372.825,29.534L372.773,29.527L372.72,29.522L372.667,29.517L372.614,29.512L372.56,29.509L372.506,29.505L372.452,29.503L372.398,29.501L372.344,29.5L372.288,29.5L29.712,29.5Z" style="fill:rgb(118,118,118);"/>
        </g>
    </g>
</svg>
