<?xml version="1.0" encoding="UTF-8" standalone="no"?>
<!DOCTYPE svg PUBLIC "-//W3C//DTD SVG 1.1//EN" "http://www.w3.org/Graphics/SVG/1.1/DTD/svg11.dtd">
<svg width="100%" height="100%" viewBox="0 0 400 400" version="1.1" xmlns="http://www.w3.org/2000/svg" xmlns:xlink="http://www.w3.org/1999/xlink" xml:space="preserve" xmlns:serif="http://www.serif.com/" style="fill-rule:evenodd;clip-rule:evenodd;stroke-linecap:round;stroke-linejoin:round;stroke-miterlimit:1.5;">
    <g id="Icon-2" serif:id="Icon 2" transform="matrix(1,0,0,1,-5.5,-24)">
        <g transform="matrix(2.27545,0,0,2.4359,-278.033,-194.974)">
            <ellipse cx="212.5" cy="172" rx="83.5" ry="78" style="fill:none;"/>
            <clipPath id="_clip1">
                <ellipse cx="212.5" cy="172" rx="83.5" ry="78"/>
            </clipPath>
            <g clip-path="url(#_clip1)">
                <g transform="matrix(0.595448,0,0,0.556227,87.7537,53.729)">
                    <g transform="matrix(0.738056,0,0,0.65126,61.8888,55.7791)">
                        <path d="M63.417,160.033L48.25,75" style="fill:none;stroke:rgb(31,40,51);stroke-width:8.48px;"/>
                    </g>
                    <g transform="matrix(1,0,0,1,5.5,24)">
                        <path d="M193,165.5C199.527,161.228 206.2,161.407 213,165.5" style="fill:none;stroke:rgb(31,40,51);stroke-width:5.9px;"/>
                    </g>
                    <g transform="matrix(1,0,0,1,7.5,28.5)">
                        <ellipse cx="140.5" cy="161" rx="50.5" ry="47" style="fill:white;stroke:rgb(31,40,51);stroke-width:5.9px;"/>
                    </g>
                    <g transform="matrix(1,0,0,1,130.5,28.5)">
                        <ellipse cx="140.5" cy="161" rx="50.5" ry="47" style="fill:white;stroke:rgb(31,40,51);stroke-width:5.9px;"/>
                    </g>
                    <g transform="matrix(-0.738056,0,0,0.65126,357.111,55.7791)">
                        <path d="M63.417,160.033L48.25,75" style="fill:none;stroke:rgb(31,40,51);stroke-width:8.48px;"/>
                    </g>
                    <g id="Icon-1" serif:id="Icon 1" transform="matrix(0.192861,0,0,0.577555,109.235,123.213)">
                        <g transform="matrix(-1,0,-0,1,404,0)">
                            <path d="M27,97C43.371,87.52 57.562,86.775 69.075,96.76C80.581,90.805 90.956,88.811 98.538,96.591C105.239,89.933 112.174,86.665 120.011,96.469C125.552,87.863 129.198,91.142 132.529,96.397C143.571,90.644 154.302,87.314 163.466,96.22C175.656,91.296 188.321,88.906 202.768,95.996C215.108,88.093 228.439,86.634 246.134,95.748C253.54,90.483 261.65,89.74 270.791,95.607C281.667,84.234 289.794,85.301 295.91,95.463C309.914,89.682 323.179,87.665 334.559,95.243C340.102,91.304 346.064,87.97 359.247,95.101C363.187,89.271 369.407,90.126 377,95" style="fill:none;stroke:rgb(118,118,118);stroke-width:10.29px;"/>
                        </g>
                        <g transform="matrix(1,0,0,1,-2,22.5443)">
                            <path d="M27,97C43.371,87.52 57.562,86.775 69.075,96.76C80.581,90.805 90.956,88.811 98.538,96.591C105.239,89.933 112.174,86.665 120.011,96.469C125.552,87.863 129.198,91.142 132.529,96.397C143.571,90.644 154.302,87.314 163.466,96.22C175.656,91.296 188.321,88.906 202.768,95.996C215.108,88.093 228.439,86.634 246.134,95.748C253.54,90.483 261.65,89.74 270.791,95.607C281.667,84.234 289.794,85.301 295.91,95.463C309.914,89.682 323.179,87.665 334.559,95.243C340.102,91.304 346.064,87.97 359.247,95.101C363.187,89.271 369.407,90.126 377,95" style="fill:none;stroke:rgb(118,118,118);stroke-width:10.29px;"/>
                        </g>
                        <g transform="matrix(-1,0,-0,1,402,45.0887)">
                            <path d="M27,97C43.371,87.52 57.562,86.775 69.075,96.76C80.581,90.805 90.956,88.811 98.538,96.591C105.239,89.933 112.174,86.665 120.011,96.469C125.552,87.863 129.198,91.142 132.529,96.397C143.571,90.644 154.302,87.314 163.466,96.22C175.656,91.296 188.321,88.906 202.768,95.996C215.108,88.093 228.439,86.634 246.134,95.748C253.54,90.483 261.65,89.74 270.791,95.607C281.667,84.234 289.794,85.301 295.91,95.463C309.914,89.682 323.179,87.665 334.559,95.243C340.102,91.304 346.064,87.97 359.247,95.101C363.187,89.271 369.407,90.126 377,95" style="fill:none;stroke:rgb(118,118,118);stroke-width:10.29px;"/>
                        </g>
                    </g>
                    <g id="Icon-11" serif:id="Icon 1" transform="matrix(0.192861,0,0,0.577555,232.235,125.969)">
                        <g transform="matrix(-1,0,-0,1,404,0)">
                            <path d="M27,97C43.371,87.52 57.562,86.775 69.075,96.76C80.581,90.805 90.956,88.811 98.538,96.591C105.239,89.933 112.174,86.665 120.011,96.469C125.552,87.863 129.198,91.142 132.529,96.397C143.571,90.644 154.302,87.314 163.466,96.22C175.656,91.296 188.321,88.906 202.768,95.996C215.108,88.093 228.439,86.634 246.134,95.748C253.54,90.483 261.65,89.74 270.791,95.607C281.667,84.234 289.794,85.301 295.91,95.463C309.914,89.682 323.179,87.665 334.559,95.243C340.102,91.304 346.064,87.97 359.247,95.101C363.187,89.271 369.407,90.126 377,95" style="fill:none;stroke:rgb(118,118,118);stroke-width:10.29px;"/>
                        </g>
                        <g transform="matrix(1,0,0,1,-2,22.5443)">
                            <path d="M27,97C43.371,87.52 57.562,86.775 69.075,96.76C80.581,90.805 90.956,88.811 98.538,96.591C105.239,89.933 112.174,86.665 120.011,96.469C125.552,87.863 129.198,91.142 132.529,96.397C143.571,90.644 154.302,87.314 163.466,96.22C175.656,91.296 188.321,88.906 202.768,95.996C215.108,88.093 228.439,86.634 246.134,95.748C253.54,90.483 261.65,89.74 270.791,95.607C281.667,84.234 289.794,85.301 295.91,95.463C309.914,89.682 323.179,87.665 334.559,95.243C340.102,91.304 346.064,87.97 359.247,95.101C363.187,89.271 369.407,90.126 377,95" style="fill:none;stroke:rgb(118,118,118);stroke-width:10.29px;"/>
                        </g>
                        <g transform="matrix(-1,0,-0,1,402,45.0887)">
                            <path d="M27,97C43.371,87.52 57.562,86.775 69.075,96.76C80.581,90.805 90.956,88.811 98.538,96.591C105.239,89.933 112.174,86.665 120.011,96.469C125.552,87.863 129.198,91.142 132.529,96.397C143.571,90.644 154.302,87.314 163.466,96.22C175.656,91.296 188.321,88.906 202.768,95.996C215.108,88.093 228.439,86.634 246.134,95.748C253.54,90.483 261.65,89.74 270.791,95.607C281.667,84.234 289.794,85.301 295.91,95.463C309.914,89.682 323.179,87.665 334.559,95.243C340.102,91.304 346.064,87.97 359.247,95.101C363.187,89.271 369.407,90.126 377,95" style="fill:none;stroke:rgb(118,118,118);stroke-width:10.29px;"/>
                        </g>
                    </g>
                </g>
            </g>
            <path d="M212.771,93.795L213.041,93.796L213.311,93.798L213.581,93.801L213.851,93.805L214.121,93.809L214.39,93.814L214.659,93.82L214.928,93.827L215.197,93.835L215.466,93.843L215.734,93.852L216.002,93.862L216.27,93.873L216.538,93.884L216.805,93.897L217.073,93.91L217.34,93.923L217.606,93.938L217.873,93.954L218.139,93.97L218.406,93.987L218.672,94.004L218.937,94.023L219.203,94.042L219.468,94.062L219.733,94.083L219.998,94.105L220.262,94.127L220.527,94.15L220.791,94.174L221.055,94.199L221.318,94.224L221.581,94.25L221.845,94.277L222.107,94.305L222.37,94.334L222.632,94.363L222.895,94.393L223.156,94.424L223.418,94.455L223.679,94.487L223.941,94.52L224.201,94.554L224.462,94.589L224.722,94.624L224.982,94.66L225.242,94.697L225.502,94.734L225.761,94.772L226.02,94.811L226.279,94.851L226.538,94.891L226.796,94.933L227.054,94.974L227.312,95.017L227.569,95.061L227.826,95.105L228.083,95.15L228.34,95.195L228.596,95.241L228.852,95.288L229.108,95.336L229.363,95.385L229.619,95.434L229.874,95.484L230.128,95.535L230.383,95.586L230.637,95.638L230.891,95.691L231.144,95.745L231.397,95.799L231.65,95.854L231.903,95.91L232.155,95.966L232.407,96.023L232.659,96.081L232.91,96.139L233.162,96.199L233.412,96.259L233.663,96.319L233.913,96.381L234.163,96.443L234.413,96.506L234.662,96.569L234.911,96.633L235.16,96.698L235.408,96.764L235.656,96.83L235.904,96.897L236.152,96.965L236.399,97.033L236.646,97.102L236.892,97.172L237.138,97.242L237.384,97.313L237.63,97.385L237.875,97.457L238.12,97.531L238.364,97.605L238.609,97.679L238.853,97.754L239.096,97.83L239.339,97.907L239.582,97.984L239.825,98.062L240.067,98.14L240.309,98.22L240.551,98.3L240.792,98.38L241.033,98.462L241.273,98.544L241.514,98.626L241.753,98.709L241.993,98.793L242.232,98.878L242.471,98.963L242.709,99.049L242.948,99.136L243.185,99.223L243.423,99.311L243.66,99.4L243.896,99.489L244.133,99.579L244.369,99.669L244.604,99.76L244.84,99.852L245.075,99.945L245.309,100.038L245.543,100.132L245.777,100.226L246.011,100.321L246.244,100.417L246.476,100.513L246.709,100.61L246.941,100.708L247.172,100.806L247.403,100.905L247.634,101.004L247.865,101.105L248.095,101.205L248.324,101.307L248.554,101.409L248.783,101.512L249.011,101.615L249.239,101.719L249.467,101.824L249.695,101.929L249.922,102.035L250.148,102.141L250.374,102.248L250.6,102.356L250.826,102.464L251.051,102.573L251.275,102.683L251.499,102.793L251.723,102.904L251.947,103.015L252.17,103.127L252.392,103.24L252.615,103.353L252.836,103.467L253.058,103.581L253.279,103.696L253.499,103.812L253.719,103.928L253.939,104.045L254.159,104.162L254.377,104.281L254.596,104.399L254.814,104.518L255.032,104.638L255.249,104.759L255.466,104.88L255.682,105.001L255.898,105.124L256.114,105.246L256.329,105.37L256.544,105.494L256.758,105.618L256.972,105.744L257.185,105.869L257.398,105.996L257.611,106.123L257.823,106.25L258.034,106.378L258.246,106.507L258.456,106.636L258.667,106.766L258.877,106.896L259.086,107.027L259.295,107.159L259.504,107.291L259.712,107.423L259.919,107.557L260.127,107.691L260.333,107.825L260.54,107.96L260.746,108.095L260.951,108.231L261.156,108.368L261.36,108.505L261.565,108.643L261.768,108.781L261.971,108.92L262.174,109.059L262.376,109.199L262.578,109.34L262.779,109.481L262.98,109.623L263.18,109.765L263.38,109.908L263.579,110.051L263.778,110.195L263.977,110.339L264.175,110.484L264.372,110.629L264.569,110.775L264.766,110.922L264.962,111.069L265.157,111.216L265.352,111.365L265.547,111.513L265.741,111.662L265.934,111.812L266.128,111.962L266.32,112.113L266.512,112.265L266.704,112.416L266.895,112.569L267.086,112.722L267.276,112.875L267.466,113.029L267.655,113.183L267.843,113.338L268.031,113.494L268.219,113.65L268.406,113.807L268.593,113.964L268.779,114.121L268.965,114.279L269.15,114.438L269.334,114.597L269.519,114.757L269.702,114.917L269.885,115.077L270.068,115.239L270.25,115.4L270.431,115.562L270.612,115.725L270.793,115.888L270.973,116.052L271.152,116.216L271.331,116.381L271.509,116.546L271.687,116.711L271.865,116.877L272.041,117.044L272.218,117.211L272.393,117.379L272.569,117.547L272.743,117.716L272.917,117.885L273.091,118.054L273.264,118.224L273.436,118.395L273.608,118.566L273.78,118.737L273.951,118.909L274.121,119.082L274.291,119.255L274.46,119.428L274.629,119.602L274.797,119.776L274.964,119.951L275.131,120.126L275.298,120.302L275.464,120.478L275.629,120.655L275.794,120.832L275.958,121.01L276.122,121.188L276.285,121.366L276.448,121.545L276.61,121.725L276.771,121.905L276.932,122.085L277.092,122.266L277.252,122.447L277.411,122.629L277.57,122.811L277.728,122.994L277.885,123.177L278.042,123.361L278.198,123.545L278.354,123.729L278.509,123.914L278.663,124.099L278.817,124.285L278.971,124.471L279.124,124.658L279.276,124.845L279.427,125.033L279.578,125.221L279.729,125.409L279.879,125.598L280.028,125.787L280.177,125.977L280.325,126.167L280.472,126.358L280.619,126.549L280.765,126.74L280.911,126.932L281.056,127.125L281.2,127.317L281.344,127.51L281.487,127.704L281.63,127.898L281.772,128.092L281.913,128.287L282.054,128.482L282.194,128.678L282.334,128.874L282.473,129.071L282.611,129.268L282.749,129.465L282.886,129.663L283.023,129.861L283.158,130.059L283.294,130.258L283.428,130.458L283.562,130.657L283.696,130.857L283.828,131.058L283.961,131.259L284.092,131.46L284.223,131.662L284.353,131.864L284.483,132.067L284.612,132.27L284.74,132.473L284.868,132.677L284.995,132.881L285.121,133.085L285.247,133.29L285.372,133.496L285.496,133.701L285.62,133.907L285.743,134.114L285.866,134.321L285.988,134.528L286.109,134.735L286.229,134.943L286.349,135.152L286.469,135.36L286.587,135.569L286.705,135.779L286.822,135.989L286.939,136.199L287.055,136.409L287.17,136.62L287.285,136.832L287.399,137.043L287.512,137.255L287.625,137.468L287.737,137.681L287.848,137.894L287.959,138.107L288.069,138.321L288.178,138.535L288.286,138.75L288.394,138.965L288.502,139.18L288.608,139.396L288.714,139.612L288.819,139.828L288.924,140.045L289.028,140.262L289.131,140.479L289.233,140.697L289.335,140.915L289.436,141.133L289.536,141.352L289.636,141.571L289.735,141.79L289.833,142.01L289.931,142.23L290.028,142.451L290.124,142.672L290.22,142.893L290.315,143.114L290.409,143.336L290.502,143.558L290.595,143.78L290.687,144.003L290.778,144.226L290.869,144.45L290.958,144.673L291.048,144.898L291.136,145.122L291.224,145.347L291.311,145.572L291.397,145.797L291.483,146.023L291.568,146.249L291.652,146.475L291.735,146.702L291.818,146.928L291.9,147.156L291.981,147.383L292.062,147.611L292.141,147.839L292.22,148.068L292.299,148.296L292.376,148.526L292.453,148.755L292.529,148.985L292.605,149.215L292.679,149.445L292.753,149.675L292.826,149.906L292.899,150.137L292.971,150.369L293.041,150.601L293.112,150.833L293.181,151.065L293.25,151.298L293.318,151.531L293.385,151.764L293.451,151.997L293.517,152.231L293.582,152.465L293.646,152.699L293.71,152.934L293.772,153.169L293.834,153.404L293.895,153.639L293.956,153.875L294.015,154.111L294.074,154.347L294.132,154.584L294.19,154.821L294.246,155.058L294.302,155.295L294.357,155.533L294.411,155.771L294.465,156.009L294.518,156.247L294.57,156.486L294.621,156.725L294.671,156.964L294.721,157.204L294.769,157.443L294.817,157.683L294.865,157.924L294.911,158.164L294.957,158.405L295.002,158.646L295.046,158.887L295.089,159.129L295.132,159.37L295.173,159.612L295.214,159.855L295.254,160.097L295.294,160.34L295.332,160.583L295.37,160.826L295.407,161.069L295.443,161.313L295.478,161.557L295.513,161.801L295.547,162.045L295.58,162.29L295.612,162.535L295.643,162.78L295.673,163.025L295.703,163.271L295.732,163.517L295.76,163.763L295.787,164.009L295.814,164.255L295.839,164.502L295.864,164.749L295.888,164.996L295.911,165.243L295.933,165.491L295.955,165.739L295.975,165.987L295.995,166.235L296.014,166.483L296.032,166.732L296.05,166.981L296.066,167.23L296.082,167.479L296.097,167.729L296.111,167.978L296.124,168.228L296.136,168.478L296.148,168.728L296.158,168.979L296.168,169.23L296.177,169.481L296.185,169.732L296.192,169.983L296.199,170.234L296.204,170.486L296.209,170.738L296.213,170.99L296.216,171.242L296.218,171.495L296.219,171.747L296.22,172L296.219,172.253L296.218,172.505L296.216,172.758L296.213,173.01L296.209,173.262L296.204,173.514L296.199,173.766L296.192,174.017L296.185,174.268L296.177,174.519L296.168,174.77L296.158,175.021L296.148,175.272L296.136,175.522L296.124,175.772L296.111,176.022L296.097,176.271L296.082,176.521L296.066,176.77L296.05,177.019L296.032,177.268L296.014,177.517L295.995,177.765L295.975,178.013L295.955,178.261L295.933,178.509L295.911,178.757L295.888,179.004L295.864,179.251L295.839,179.498L295.814,179.745L295.787,179.991L295.76,180.237L295.732,180.483L295.703,180.729L295.673,180.975L295.643,181.22L295.612,181.465L295.58,181.71L295.547,181.955L295.513,182.199L295.478,182.443L295.443,182.687L295.407,182.931L295.37,183.174L295.332,183.417L295.294,183.66L295.254,183.903L295.214,184.145L295.173,184.388L295.132,184.63L295.089,184.871L295.046,185.113L295.002,185.354L294.957,185.595L294.911,185.836L294.865,186.076L294.817,186.317L294.769,186.557L294.721,186.796L294.671,187.036L294.621,187.275L294.57,187.514L294.518,187.753L294.465,187.991L294.411,188.229L294.357,188.467L294.302,188.705L294.246,188.942L294.19,189.179L294.132,189.416L294.074,189.653L294.015,189.889L293.956,190.125L293.895,190.361L293.834,190.596L293.772,190.831L293.71,191.066L293.646,191.301L293.582,191.535L293.517,191.769L293.451,192.003L293.385,192.236L293.318,192.469L293.25,192.702L293.181,192.935L293.112,193.167L293.041,193.399L292.971,193.631L292.899,193.863L292.826,194.094L292.753,194.325L292.679,194.555L292.605,194.785L292.529,195.015L292.453,195.245L292.376,195.474L292.299,195.704L292.22,195.932L292.141,196.161L292.062,196.389L291.981,196.617L291.9,196.844L291.818,197.072L291.735,197.298L291.652,197.525L291.568,197.751L291.483,197.977L291.397,198.203L291.311,198.428L291.224,198.653L291.136,198.878L291.048,199.102L290.958,199.327L290.869,199.55L290.778,199.774L290.687,199.997L290.595,200.22L290.502,200.442L290.409,200.664L290.315,200.886L290.22,201.107L290.124,201.328L290.028,201.549L289.931,201.77L289.833,201.99L289.735,202.21L289.636,202.429L289.536,202.648L289.436,202.867L289.335,203.085L289.233,203.303L289.131,203.521L289.028,203.738L288.924,203.955L288.819,204.172L288.714,204.388L288.608,204.604L288.502,204.82L288.394,205.035L288.286,205.25L288.178,205.465L288.069,205.679L287.959,205.893L287.848,206.106L287.737,206.319L287.625,206.532L287.512,206.745L287.399,206.957L287.285,207.168L287.17,207.38L287.055,207.591L286.939,207.801L286.822,208.011L286.705,208.221L286.587,208.431L286.469,208.64L286.349,208.848L286.229,209.057L286.109,209.265L285.988,209.472L285.866,209.679L285.743,209.886L285.62,210.093L285.496,210.299L285.372,210.504L285.247,210.71L285.121,210.915L284.995,211.119L284.868,211.323L284.74,211.527L284.612,211.73L284.483,211.933L284.353,212.136L284.223,212.338L284.092,212.54L283.961,212.741L283.828,212.942L283.696,213.143L283.562,213.343L283.428,213.542L283.294,213.742L283.158,213.941L283.023,214.139L282.886,214.337L282.749,214.535L282.611,214.732L282.473,214.929L282.334,215.126L282.194,215.322L282.054,215.518L281.913,215.713L281.772,215.908L281.63,216.102L281.487,216.296L281.344,216.49L281.2,216.683L281.056,216.875L280.911,217.068L280.765,217.26L280.619,217.451L280.472,217.642L280.325,217.833L280.177,218.023L280.028,218.213L279.879,218.402L279.729,218.591L279.578,218.779L279.427,218.967L279.276,219.155L279.124,219.342L278.971,219.529L278.817,219.715L278.663,219.901L278.509,220.086L278.354,220.271L278.198,220.455L278.042,220.639L277.885,220.823L277.728,221.006L277.57,221.189L277.411,221.371L277.252,221.553L277.092,221.734L276.932,221.915L276.771,222.095L276.61,222.275L276.448,222.455L276.285,222.634L276.122,222.812L275.958,222.99L275.794,223.168L275.629,223.345L275.464,223.522L275.298,223.698L275.131,223.874L274.964,224.049L274.797,224.224L274.629,224.398L274.46,224.572L274.291,224.745L274.121,224.918L273.951,225.091L273.78,225.263L273.608,225.434L273.436,225.605L273.264,225.776L273.091,225.946L272.917,226.115L272.743,226.284L272.569,226.453L272.393,226.621L272.218,226.789L272.041,226.956L271.865,227.123L271.687,227.289L271.509,227.454L271.331,227.619L271.152,227.784L270.973,227.948L270.793,228.112L270.612,228.275L270.431,228.438L270.25,228.6L270.068,228.761L269.885,228.923L269.702,229.083L269.519,229.243L269.334,229.403L269.15,229.562L268.965,229.721L268.779,229.879L268.593,230.036L268.406,230.193L268.219,230.35L268.031,230.506L267.843,230.662L267.655,230.817L267.466,230.971L267.276,231.125L267.086,231.278L266.895,231.431L266.704,231.584L266.512,231.735L266.32,231.887L266.128,232.038L265.934,232.188L265.741,232.338L265.547,232.487L265.352,232.635L265.157,232.784L264.962,232.931L264.766,233.078L264.569,233.225L264.372,233.371L264.175,233.516L263.977,233.661L263.778,233.805L263.579,233.949L263.38,234.092L263.18,234.235L262.98,234.377L262.779,234.519L262.578,234.66L262.376,234.801L262.174,234.941L261.971,235.08L261.768,235.219L261.565,235.357L261.36,235.495L261.156,235.632L260.951,235.769L260.746,235.905L260.54,236.04L260.333,236.175L260.127,236.309L259.919,236.443L259.712,236.577L259.504,236.709L259.295,236.841L259.086,236.973L258.877,237.104L258.667,237.234L258.456,237.364L258.246,237.493L258.034,237.622L257.823,237.75L257.611,237.877L257.398,238.004L257.185,238.131L256.972,238.256L256.758,238.382L256.544,238.506L256.329,238.63L256.114,238.754L255.898,238.876L255.682,238.999L255.466,239.12L255.249,239.241L255.032,239.362L254.814,239.482L254.596,239.601L254.377,239.719L254.159,239.838L253.939,239.955L253.719,240.072L253.499,240.188L253.279,240.304L253.058,240.419L252.836,240.533L252.615,240.647L252.392,240.76L252.17,240.873L251.947,240.985L251.723,241.096L251.499,241.207L251.275,241.317L251.051,241.427L250.826,241.536L250.6,241.644L250.374,241.752L250.148,241.859L249.922,241.965L249.695,242.071L249.467,242.176L249.239,242.281L249.011,242.385L248.783,242.488L248.554,242.591L248.324,242.693L248.095,242.795L247.865,242.895L247.634,242.996L247.403,243.095L247.172,243.194L246.941,243.292L246.709,243.39L246.476,243.487L246.244,243.583L246.011,243.679L245.777,243.774L245.543,243.868L245.309,243.962L245.075,244.055L244.84,244.148L244.604,244.24L244.369,244.331L244.133,244.421L243.896,244.511L243.66,244.6L243.423,244.689L243.185,244.777L242.948,244.864L242.709,244.951L242.471,245.037L242.232,245.122L241.993,245.207L241.753,245.291L241.514,245.374L241.273,245.456L241.033,245.538L240.792,245.62L240.551,245.7L240.309,245.78L240.067,245.86L239.825,245.938L239.582,246.016L239.339,246.093L239.096,246.17L238.853,246.246L238.609,246.321L238.364,246.395L238.12,246.469L237.875,246.543L237.63,246.615L237.384,246.687L237.138,246.758L236.892,246.828L236.646,246.898L236.399,246.967L236.152,247.035L235.904,247.103L235.656,247.17L235.408,247.236L235.16,247.302L234.911,247.367L234.662,247.431L234.413,247.494L234.163,247.557L233.913,247.619L233.663,247.681L233.412,247.741L233.162,247.801L232.91,247.861L232.659,247.919L232.407,247.977L232.155,248.034L231.903,248.09L231.65,248.146L231.397,248.201L231.144,248.255L230.891,248.309L230.637,248.362L230.383,248.414L230.128,248.465L229.874,248.516L229.619,248.566L229.363,248.615L229.108,248.664L228.852,248.712L228.596,248.759L228.34,248.805L228.083,248.85L227.826,248.895L227.569,248.939L227.312,248.983L227.054,249.026L226.796,249.067L226.538,249.109L226.279,249.149L226.02,249.189L225.761,249.228L225.502,249.266L225.242,249.303L224.982,249.34L224.722,249.376L224.462,249.411L224.201,249.446L223.941,249.48L223.679,249.513L223.418,249.545L223.156,249.576L222.895,249.607L222.632,249.637L222.37,249.666L222.107,249.695L221.845,249.723L221.581,249.75L221.318,249.776L221.055,249.801L220.791,249.826L220.527,249.85L220.262,249.873L219.998,249.895L219.733,249.917L219.468,249.938L219.203,249.958L218.937,249.977L218.672,249.996L218.406,250.013L218.139,250.03L217.873,250.046L217.606,250.062L217.34,250.076L217.073,250.09L216.805,250.103L216.538,250.116L216.27,250.127L216.002,250.138L215.734,250.148L215.466,250.157L215.197,250.165L214.928,250.173L214.659,250.18L214.39,250.186L214.121,250.191L213.851,250.195L213.581,250.199L213.311,250.202L213.041,250.204L212.771,250.205L212.5,250.205L212.229,250.205L211.959,250.204L211.689,250.202L211.419,250.199L211.149,250.195L210.879,250.191L210.61,250.186L210.341,250.18L210.072,250.173L209.803,250.165L209.534,250.157L209.266,250.148L208.998,250.138L208.73,250.127L208.462,250.116L208.195,250.103L207.927,250.09L207.66,250.076L207.394,250.062L207.127,250.046L206.861,250.03L206.594,250.013L206.328,249.996L206.063,249.977L205.797,249.958L205.532,249.938L205.267,249.917L205.002,249.895L204.738,249.873L204.473,249.85L204.209,249.826L203.945,249.801L203.682,249.776L203.419,249.75L203.155,249.723L202.893,249.695L202.63,249.666L202.368,249.637L202.105,249.607L201.844,249.576L201.582,249.545L201.321,249.513L201.059,249.48L200.799,249.446L200.538,249.411L200.278,249.376L200.018,249.34L199.758,249.303L199.498,249.266L199.239,249.228L198.98,249.189L198.721,249.149L198.462,249.109L198.204,249.067L197.946,249.026L197.688,248.983L197.431,248.939L197.174,248.895L196.917,248.85L196.66,248.805L196.404,248.759L196.148,248.712L195.892,248.664L195.637,248.615L195.381,248.566L195.126,248.516L194.872,248.465L194.617,248.414L194.363,248.362L194.109,248.309L193.856,248.255L193.603,248.201L193.35,248.146L193.097,248.09L192.845,248.034L192.593,247.977L192.341,247.919L192.09,247.861L191.838,247.801L191.588,247.741L191.337,247.681L191.087,247.619L190.837,247.557L190.587,247.494L190.338,247.431L190.089,247.367L189.84,247.302L189.592,247.236L189.344,247.17L189.096,247.103L188.848,247.035L188.601,246.967L188.354,246.898L188.108,246.828L187.862,246.758L187.616,246.687L187.37,246.615L187.125,246.543L186.88,246.469L186.636,246.395L186.391,246.321L186.147,246.246L185.904,246.17L185.661,246.093L185.418,246.016L185.175,245.938L184.933,245.86L184.691,245.78L184.449,245.7L184.208,245.62L183.967,245.538L183.727,245.456L183.486,245.374L183.247,245.291L183.007,245.207L182.768,245.122L182.529,245.037L182.291,244.951L182.052,244.864L181.815,244.777L181.577,244.689L181.34,244.6L181.104,244.511L180.867,244.421L180.631,244.331L180.396,244.24L180.16,244.148L179.925,244.055L179.691,243.962L179.457,243.868L179.223,243.774L178.989,243.679L178.756,243.583L178.524,243.487L178.291,243.39L178.059,243.292L177.828,243.194L177.597,243.095L177.366,242.996L177.135,242.895L176.905,242.795L176.676,242.693L176.446,242.591L176.217,242.488L175.989,242.385L175.761,242.281L175.533,242.176L175.305,242.071L175.078,241.965L174.852,241.859L174.626,241.752L174.4,241.644L174.174,241.536L173.949,241.427L173.725,241.317L173.501,241.207L173.277,241.096L173.053,240.985L172.83,240.873L172.608,240.76L172.385,240.647L172.164,240.533L171.942,240.419L171.721,240.304L171.501,240.188L171.281,240.072L171.061,239.955L170.841,239.838L170.623,239.719L170.404,239.601L170.186,239.482L169.968,239.362L169.751,239.241L169.534,239.12L169.318,238.999L169.102,238.876L168.886,238.754L168.671,238.63L168.456,238.506L168.242,238.382L168.028,238.256L167.815,238.131L167.602,238.004L167.389,237.877L167.177,237.75L166.966,237.622L166.754,237.493L166.544,237.364L166.333,237.234L166.123,237.104L165.914,236.973L165.705,236.841L165.496,236.709L165.288,236.577L165.081,236.443L164.873,236.309L164.667,236.175L164.46,236.04L164.254,235.905L164.049,235.769L163.844,235.632L163.64,235.495L163.435,235.357L163.232,235.219L163.029,235.08L162.826,234.941L162.624,234.801L162.422,234.66L162.221,234.519L162.02,234.377L161.82,234.235L161.62,234.092L161.421,233.949L161.222,233.805L161.023,233.661L160.825,233.516L160.628,233.371L160.431,233.225L160.234,233.078L160.038,232.931L159.843,232.784L159.648,232.635L159.453,232.487L159.259,232.338L159.066,232.188L158.872,232.038L158.68,231.887L158.488,231.735L158.296,231.584L158.105,231.431L157.914,231.278L157.724,231.125L157.534,230.971L157.345,230.817L157.157,230.662L156.969,230.506L156.781,230.35L156.594,230.193L156.407,230.036L156.221,229.879L156.035,229.721L155.85,229.562L155.666,229.403L155.481,229.243L155.298,229.083L155.115,228.923L154.932,228.761L154.75,228.6L154.569,228.438L154.388,228.275L154.207,228.112L154.027,227.948L153.848,227.784L153.669,227.619L153.491,227.454L153.313,227.289L153.135,227.123L152.959,226.956L152.782,226.789L152.607,226.621L152.431,226.453L152.257,226.284L152.083,226.115L151.909,225.946L151.736,225.776L151.564,225.605L151.392,225.434L151.22,225.263L151.049,225.091L150.879,224.918L150.709,224.745L150.54,224.572L150.371,224.398L150.203,224.224L150.036,224.049L149.869,223.874L149.702,223.698L149.536,223.522L149.371,223.345L149.206,223.168L149.042,222.99L148.878,222.812L148.715,222.634L148.552,222.455L148.39,222.275L148.229,222.095L148.068,221.915L147.908,221.734L147.748,221.553L147.589,221.371L147.43,221.189L147.272,221.006L147.115,220.823L146.958,220.639L146.802,220.455L146.646,220.271L146.491,220.086L146.337,219.901L146.183,219.715L146.029,219.529L145.876,219.342L145.724,219.155L145.573,218.967L145.422,218.779L145.271,218.591L145.121,218.402L144.972,218.213L144.823,218.023L144.675,217.833L144.528,217.642L144.381,217.451L144.235,217.26L144.089,217.068L143.944,216.875L143.8,216.683L143.656,216.49L143.513,216.296L143.37,216.102L143.228,215.908L143.087,215.713L142.946,215.518L142.806,215.322L142.666,215.126L142.527,214.929L142.389,214.732L142.251,214.535L142.114,214.337L141.977,214.139L141.842,213.941L141.706,213.742L141.572,213.542L141.438,213.343L141.304,213.143L141.172,212.942L141.039,212.741L140.908,212.54L140.777,212.338L140.647,212.136L140.517,211.933L140.388,211.73L140.26,211.527L140.132,211.323L140.005,211.119L139.879,210.915L139.753,210.71L139.628,210.504L139.504,210.299L139.38,210.093L139.257,209.886L139.134,209.679L139.012,209.472L138.891,209.265L138.771,209.057L138.651,208.848L138.531,208.64L138.413,208.431L138.295,208.221L138.178,208.011L138.061,207.801L137.945,207.591L137.83,207.38L137.715,207.168L137.601,206.957L137.488,206.745L137.375,206.532L137.263,206.319L137.152,206.106L137.041,205.893L136.931,205.679L136.822,205.465L136.714,205.25L136.606,205.035L136.498,204.82L136.392,204.604L136.286,204.388L136.181,204.172L136.076,203.955L135.972,203.738L135.869,203.521L135.767,203.303L135.665,203.085L135.564,202.867L135.464,202.648L135.364,202.429L135.265,202.21L135.167,201.99L135.069,201.77L134.972,201.549L134.876,201.328L134.78,201.107L134.685,200.886L134.591,200.664L134.498,200.442L134.405,200.22L134.313,199.997L134.222,199.774L134.131,199.55L134.041,199.327L133.952,199.102L133.864,198.878L133.776,198.653L133.689,198.428L133.603,198.203L133.517,197.977L133.432,197.751L133.348,197.525L133.265,197.298L133.182,197.072L133.1,196.844L133.019,196.617L132.938,196.389L132.859,196.161L132.78,195.932L132.701,195.704L132.624,195.474L132.547,195.245L132.471,195.015L132.395,194.785L132.321,194.555L132.247,194.325L132.174,194.094L132.101,193.863L132.029,193.631L131.959,193.399L131.888,193.167L131.819,192.935L131.75,192.702L131.682,192.469L131.615,192.236L131.549,192.003L131.483,191.769L131.418,191.535L131.354,191.301L131.29,191.066L131.228,190.831L131.166,190.596L131.105,190.361L131.044,190.125L130.985,189.889L130.926,189.653L130.868,189.416L130.81,189.179L130.754,188.942L130.698,188.705L130.643,188.467L130.589,188.229L130.535,187.991L130.482,187.753L130.43,187.514L130.379,187.275L130.329,187.036L130.279,186.796L130.231,186.557L130.183,186.317L130.135,186.076L130.089,185.836L130.043,185.595L129.998,185.354L129.954,185.113L129.911,184.871L129.868,184.63L129.827,184.388L129.786,184.145L129.746,183.903L129.706,183.66L129.668,183.417L129.63,183.174L129.593,182.931L129.557,182.687L129.522,182.443L129.487,182.199L129.453,181.955L129.42,181.71L129.388,181.465L129.357,181.22L129.327,180.975L129.297,180.729L129.268,180.483L129.24,180.237L129.213,179.991L129.186,179.745L129.161,179.498L129.136,179.251L129.112,179.004L129.089,178.757L129.067,178.509L129.045,178.261L129.025,178.013L129.005,177.765L128.986,177.517L128.968,177.268L128.95,177.019L128.934,176.77L128.918,176.521L128.903,176.271L128.889,176.022L128.876,175.772L128.864,175.522L128.852,175.272L128.842,175.021L128.832,174.77L128.823,174.519L128.815,174.268L128.808,174.017L128.801,173.766L128.796,173.514L128.791,173.262L128.787,173.01L128.784,172.758L128.782,172.505L128.781,172.253L128.78,172L128.781,171.747L128.782,171.495L128.784,171.242L128.787,170.99L128.791,170.738L128.796,170.486L128.801,170.234L128.808,169.983L128.815,169.732L128.823,169.481L128.832,169.23L128.842,168.979L128.852,168.728L128.864,168.478L128.876,168.228L128.889,167.978L128.903,167.729L128.918,167.479L128.934,167.23L128.95,166.981L128.968,166.732L128.986,166.483L129.005,166.235L129.025,165.987L129.045,165.739L129.067,165.491L129.089,165.243L129.112,164.996L129.136,164.749L129.161,164.502L129.186,164.255L129.213,164.009L129.24,163.763L129.268,163.517L129.297,163.271L129.327,163.025L129.357,162.78L129.388,162.535L129.42,162.29L129.453,162.045L129.487,161.801L129.522,161.557L129.557,161.313L129.593,161.069L129.63,160.826L129.668,160.583L129.706,160.34L129.746,160.097L129.786,159.855L129.827,159.612L129.868,159.37L129.911,159.129L129.954,158.887L129.998,158.646L130.043,158.405L130.089,158.164L130.135,157.924L130.183,157.683L130.231,157.443L130.279,157.204L130.329,156.964L130.379,156.725L130.43,156.486L130.482,156.247L130.535,156.009L130.589,155.771L130.643,155.533L130.698,155.295L130.754,155.058L130.81,154.821L130.868,154.584L130.926,154.347L130.985,154.111L131.044,153.875L131.105,153.639L131.166,153.404L131.228,153.169L131.29,152.934L131.354,152.699L131.418,152.465L131.483,152.231L131.549,151.997L131.615,151.764L131.682,151.531L131.75,151.298L131.819,151.065L131.888,150.833L131.959,150.601L132.029,150.369L132.101,150.137L132.174,149.906L132.247,149.675L132.321,149.445L132.395,149.215L132.471,148.985L132.547,148.755L132.624,148.526L132.701,148.296L132.78,148.068L132.859,147.839L132.938,147.611L133.019,147.383L133.1,147.156L133.182,146.928L133.265,146.702L133.348,146.475L133.432,146.249L133.517,146.023L133.603,145.797L133.689,145.572L133.776,145.347L133.864,145.122L133.952,144.898L134.041,144.673L134.131,144.45L134.222,144.226L134.313,144.003L134.405,143.78L134.498,143.558L134.591,143.336L134.685,143.114L134.78,142.893L134.876,142.672L134.972,142.451L135.069,142.23L135.167,142.01L135.265,141.79L135.364,141.571L135.464,141.352L135.564,141.133L135.665,140.915L135.767,140.697L135.869,140.479L135.972,140.262L136.076,140.045L136.181,139.828L136.286,139.612L136.392,139.396L136.498,139.18L136.606,138.965L136.714,138.75L136.822,138.535L136.931,138.321L137.041,138.107L137.152,137.894L137.263,137.681L137.375,137.468L137.488,137.255L137.601,137.043L137.715,136.832L137.83,136.62L137.945,136.409L138.061,136.199L138.178,135.989L138.295,135.779L138.413,135.569L138.531,135.36L138.651,135.152L138.771,134.943L138.891,134.735L139.012,134.528L139.134,134.321L139.257,134.114L139.38,133.907L139.504,133.701L139.628,133.496L139.753,133.29L139.879,133.085L140.005,132.881L140.132,132.677L140.26,132.473L140.388,132.27L140.517,132.067L140.647,131.864L140.777,131.662L140.908,131.46L141.039,131.259L141.172,131.058L141.304,130.857L141.438,130.657L141.572,130.458L141.706,130.258L141.842,130.059L141.977,129.861L142.114,129.663L142.251,129.465L142.389,129.268L142.527,129.071L142.666,128.874L142.806,128.678L142.946,128.482L143.087,128.287L143.228,128.092L143.37,127.898L143.513,127.704L143.656,127.51L143.8,127.317L143.944,127.125L144.089,126.932L144.235,126.74L144.381,126.549L144.528,126.358L144.675,126.167L144.823,125.977L144.972,125.787L145.121,125.598L145.271,125.409L145.422,125.221L145.573,125.033L145.724,124.845L145.876,124.658L146.029,124.471L146.183,124.285L146.337,124.099L146.491,123.914L146.646,123.729L146.802,123.545L146.958,123.361L147.115,123.177L147.272,122.994L147.43,122.811L147.589,122.629L147.748,122.447L147.908,122.266L148.068,122.085L148.229,121.905L148.39,121.725L148.552,121.545L148.715,121.366L148.878,121.188L149.042,121.01L149.206,120.832L149.371,120.655L149.536,120.478L149.702,120.302L149.869,120.126L150.036,119.951L150.203,119.776L150.371,119.602L150.54,119.428L150.709,119.255L150.879,119.082L151.049,118.909L151.22,118.737L151.392,118.566L151.564,118.395L151.736,118.224L151.909,118.054L152.083,117.885L152.257,117.716L152.431,117.547L152.607,117.379L152.782,117.211L152.959,117.044L153.135,116.877L153.313,116.711L153.491,116.546L153.669,116.381L153.848,116.216L154.027,116.052L154.207,115.888L154.388,115.725L154.569,115.562L154.75,115.4L154.932,115.239L155.115,115.077L155.298,114.917L155.481,114.757L155.666,114.597L155.85,114.438L156.035,114.279L156.221,114.121L156.407,113.964L156.594,113.807L156.781,113.65L156.969,113.494L157.157,113.338L157.345,113.183L157.534,113.029L157.724,112.875L157.914,112.722L158.105,112.569L158.296,112.416L158.488,112.265L158.68,112.113L158.872,111.962L159.066,111.812L159.259,111.662L159.453,111.513L159.648,111.365L159.843,111.216L160.038,111.069L160.234,110.922L160.431,110.775L160.628,110.629L160.825,110.484L161.023,110.339L161.222,110.195L161.421,110.051L161.62,109.908L161.82,109.765L162.02,109.623L162.221,109.481L162.422,109.34L162.624,109.199L162.826,109.059L163.029,108.92L163.232,108.781L163.435,108.643L163.64,108.505L163.844,108.368L164.049,108.231L164.254,108.095L164.46,107.96L164.667,107.825L164.873,107.691L165.081,107.557L165.288,107.423L165.496,107.291L165.705,107.159L165.914,107.027L166.123,106.896L166.333,106.766L166.544,106.636L166.754,106.507L166.966,106.378L167.177,106.25L167.389,106.123L167.602,105.996L167.815,105.869L168.028,105.744L168.242,105.618L168.456,105.494L168.671,105.37L168.886,105.246L169.102,105.124L169.318,105.001L169.534,104.88L169.751,104.759L169.968,104.638L170.186,104.518L170.404,104.399L170.623,104.281L170.841,104.162L171.061,104.045L171.281,103.928L171.501,103.812L171.721,103.696L171.942,103.581L172.164,103.467L172.385,103.353L172.608,103.24L172.83,103.127L173.053,103.015L173.277,102.904L173.501,102.793L173.725,102.683L173.949,102.573L174.174,102.464L174.4,102.356L174.626,102.248L174.852,102.141L175.078,102.035L175.305,101.929L175.533,101.824L175.761,101.719L175.989,101.615L176.217,101.512L176.446,101.409L176.676,101.307L176.905,101.205L177.135,101.105L177.366,101.004L177.597,100.905L177.828,100.806L178.059,100.708L178.291,100.61L178.524,100.513L178.756,100.417L178.989,100.321L179.223,100.226L179.457,100.132L179.691,100.038L179.925,99.945L180.16,99.852L180.396,99.76L180.631,99.669L180.867,99.579L181.104,99.489L181.34,99.4L181.577,99.311L181.815,99.223L182.052,99.136L182.291,99.049L182.529,98.963L182.768,98.878L183.007,98.793L183.247,98.709L183.486,98.626L183.727,98.544L183.967,98.462L184.208,98.38L184.449,98.3L184.691,98.22L184.933,98.14L185.175,98.062L185.418,97.984L185.661,97.907L185.904,97.83L186.147,97.754L186.391,97.679L186.636,97.605L186.88,97.531L187.125,97.457L187.37,97.385L187.616,97.313L187.862,97.242L188.108,97.172L188.354,97.102L188.601,97.033L188.848,96.965L189.096,96.897L189.344,96.83L189.592,96.764L189.84,96.698L190.089,96.633L190.338,96.569L190.587,96.506L190.837,96.443L191.087,96.381L191.337,96.319L191.588,96.259L191.838,96.199L192.09,96.139L192.341,96.081L192.593,96.023L192.845,95.966L193.097,95.91L193.35,95.854L193.603,95.799L193.856,95.745L194.109,95.691L194.363,95.638L194.617,95.586L194.872,95.535L195.126,95.484L195.381,95.434L195.637,95.385L195.892,95.336L196.148,95.288L196.404,95.241L196.66,95.195L196.917,95.15L197.174,95.105L197.431,95.061L197.688,95.017L197.946,94.974L198.204,94.933L198.462,94.891L198.721,94.851L198.98,94.811L199.239,94.772L199.498,94.734L199.758,94.697L200.018,94.66L200.278,94.624L200.538,94.589L200.799,94.554L201.059,94.52L201.321,94.487L201.582,94.455L201.844,94.424L202.105,94.393L202.368,94.363L202.63,94.334L202.893,94.305L203.155,94.277L203.419,94.25L203.682,94.224L203.945,94.199L204.209,94.174L204.473,94.15L204.738,94.127L205.002,94.105L205.267,94.083L205.532,94.062L205.797,94.042L206.063,94.023L206.328,94.004L206.594,93.987L206.861,93.97L207.127,93.954L207.394,93.938L207.66,93.923L207.927,93.91L208.195,93.897L208.462,93.884L208.73,93.873L208.998,93.862L209.266,93.852L209.534,93.843L209.803,93.835L210.072,93.827L210.341,93.82L210.61,93.814L210.879,93.809L211.149,93.805L211.419,93.801L211.689,93.798L211.959,93.796L212.229,93.795L212.5,93.795L212.771,93.795ZM212.231,94.206L211.962,94.207L211.693,94.209L211.424,94.212L211.156,94.215L210.888,94.22L210.62,94.225L210.352,94.231L210.084,94.237L209.817,94.245L209.55,94.253L209.283,94.262L209.016,94.272L208.749,94.283L208.483,94.294L208.217,94.307L207.951,94.32L207.685,94.333L207.42,94.348L207.155,94.363L206.89,94.379L206.625,94.396L206.36,94.414L206.096,94.432L205.832,94.451L205.568,94.471L205.305,94.492L205.041,94.514L204.778,94.536L204.515,94.559L204.252,94.583L203.99,94.607L203.728,94.633L203.466,94.659L203.204,94.685L202.943,94.713L202.681,94.741L202.42,94.77L202.16,94.8L201.899,94.831L201.639,94.862L201.379,94.894L201.119,94.927L200.86,94.961L200.6,94.995L200.341,95.03L200.083,95.066L199.824,95.102L199.566,95.14L199.308,95.178L199.05,95.216L198.793,95.256L198.536,95.296L198.279,95.337L198.022,95.379L197.766,95.421L197.51,95.464L197.254,95.508L196.998,95.553L196.743,95.598L196.488,95.644L196.233,95.691L195.979,95.739L195.725,95.787L195.471,95.836L195.217,95.886L194.964,95.936L194.711,95.987L194.458,96.039L194.206,96.092L193.954,96.145L193.702,96.199L193.45,96.254L193.199,96.309L192.948,96.365L192.697,96.422L192.447,96.479L192.197,96.538L191.947,96.597L191.697,96.656L191.448,96.717L191.199,96.778L190.95,96.839L190.702,96.902L190.454,96.965L190.206,97.029L189.959,97.093L189.712,97.159L189.465,97.224L189.219,97.291L188.972,97.358L188.727,97.426L188.481,97.495L188.236,97.564L187.991,97.634L187.746,97.705L187.502,97.777L187.258,97.849L187.015,97.921L186.771,97.995L186.528,98.069L186.286,98.144L186.044,98.219L185.802,98.296L185.56,98.372L185.319,98.45L185.078,98.528L184.837,98.607L184.597,98.686L184.357,98.767L184.117,98.847L183.878,98.929L183.639,99.011L183.4,99.094L183.162,99.178L182.924,99.262L182.687,99.347L182.449,99.432L182.213,99.518L181.976,99.605L181.74,99.692L181.504,99.78L181.269,99.869L181.034,99.959L180.799,100.049L180.564,100.139L180.33,100.231L180.097,100.323L179.863,100.415L179.63,100.509L179.398,100.603L179.166,100.697L178.934,100.792L178.702,100.888L178.471,100.985L178.241,101.082L178.01,101.18L177.78,101.278L177.551,101.377L177.321,101.477L177.092,101.577L176.864,101.678L176.636,101.779L176.408,101.881L176.181,101.984L175.954,102.088L175.727,102.192L175.501,102.296L175.275,102.402L175.05,102.508L174.825,102.614L174.6,102.721L174.376,102.829L174.152,102.937L173.929,103.046L173.706,103.156L173.483,103.266L173.261,103.377L173.039,103.488L172.818,103.6L172.597,103.713L172.376,103.826L172.156,103.94L171.936,104.054L171.716,104.17L171.497,104.285L171.279,104.401L171.061,104.518L170.843,104.636L170.625,104.754L170.409,104.872L170.192,104.992L169.976,105.111L169.76,105.232L169.545,105.353L169.33,105.474L169.116,105.597L168.902,105.719L168.688,105.843L168.475,105.967L168.262,106.091L168.05,106.216L167.838,106.342L167.627,106.468L167.416,106.595L167.205,106.722L166.995,106.85L166.785,106.979L166.576,107.108L166.367,107.238L166.159,107.368L165.951,107.499L165.743,107.63L165.536,107.762L165.33,107.895L165.124,108.028L164.918,108.162L164.713,108.296L164.508,108.431L164.304,108.566L164.1,108.702L163.896,108.838L163.693,108.975L163.491,109.113L163.289,109.251L163.087,109.39L162.886,109.529L162.686,109.669L162.485,109.809L162.286,109.95L162.086,110.091L161.888,110.233L161.689,110.376L161.491,110.519L161.294,110.662L161.097,110.807L160.901,110.951L160.705,111.096L160.509,111.242L160.314,111.389L160.12,111.535L159.926,111.683L159.732,111.831L159.539,111.979L159.346,112.128L159.154,112.277L158.963,112.427L158.771,112.578L158.581,112.729L158.391,112.881L158.201,113.033L158.012,113.185L157.823,113.339L157.635,113.492L157.447,113.646L157.26,113.801L157.074,113.956L156.887,114.112L156.702,114.268L156.517,114.425L156.332,114.582L156.148,114.74L155.964,114.898L155.781,115.057L155.598,115.216L155.416,115.376L155.235,115.536L155.054,115.697L154.873,115.859L154.693,116.02L154.513,116.183L154.334,116.345L154.156,116.509L153.978,116.673L153.8,116.837L153.624,117.002L153.447,117.167L153.271,117.333L153.096,117.499L152.921,117.666L152.747,117.833L152.573,118.001L152.4,118.169L152.227,118.337L152.055,118.507L151.883,118.676L151.712,118.846L151.542,119.017L151.372,119.188L151.202,119.36L151.034,119.532L150.865,119.704L150.697,119.877L150.53,120.05L150.363,120.224L150.197,120.399L150.032,120.574L149.867,120.749L149.702,120.925L149.538,121.101L149.375,121.278L149.212,121.455L149.05,121.632L148.888,121.811L148.727,121.989L148.566,122.168L148.406,122.347L148.247,122.527L148.088,122.708L147.93,122.889L147.772,123.07L147.615,123.252L147.458,123.434L147.302,123.616L147.147,123.799L146.992,123.983L146.837,124.167L146.684,124.351L146.531,124.536L146.378,124.721L146.226,124.907L146.075,125.093L145.924,125.28L145.774,125.467L145.624,125.654L145.475,125.842L145.326,126.03L145.179,126.219L145.031,126.408L144.885,126.598L144.738,126.788L144.593,126.978L144.448,127.169L144.304,127.36L144.16,127.552L144.017,127.744L143.875,127.937L143.733,128.13L143.591,128.323L143.451,128.517L143.311,128.711L143.171,128.906L143.032,129.101L142.894,129.296L142.756,129.492L142.619,129.689L142.483,129.885L142.347,130.082L142.212,130.28L142.078,130.478L141.944,130.676L141.81,130.875L141.678,131.074L141.546,131.273L141.414,131.473L141.284,131.674L141.153,131.874L141.024,132.075L140.895,132.277L140.767,132.479L140.639,132.681L140.512,132.884L140.386,133.087L140.26,133.29L140.135,133.494L140.01,133.698L139.887,133.903L139.763,134.108L139.641,134.313L139.519,134.519L139.398,134.725L139.277,134.931L139.157,135.138L139.038,135.345L138.919,135.553L138.801,135.761L138.684,135.969L138.567,136.178L138.451,136.387L138.336,136.597L138.221,136.807L138.107,137.017L137.994,137.227L137.881,137.438L137.769,137.649L137.658,137.861L137.547,138.073L137.437,138.285L137.328,138.498L137.219,138.711L137.111,138.925L137.004,139.139L136.897,139.353L136.791,139.567L136.686,139.782L136.581,139.997L136.477,140.213L136.374,140.429L136.271,140.645L136.169,140.861L136.068,141.078L135.968,141.296L135.868,141.513L135.769,141.731L135.67,141.949L135.572,142.168L135.475,142.387L135.379,142.606L135.283,142.826L135.188,143.046L135.094,143.266L135,143.487L134.907,143.708L134.815,143.929L134.723,144.15L134.633,144.372L134.543,144.595L134.453,144.817L134.365,145.04L134.277,145.263L134.189,145.487L134.103,145.711L134.017,145.935L133.932,146.159L133.847,146.384L133.764,146.609L133.681,146.834L133.598,147.06L133.517,147.286L133.436,147.512L133.356,147.739L133.277,147.966L133.198,148.193L133.12,148.421L133.043,148.649L132.966,148.877L132.891,149.105L132.816,149.334L132.741,149.563L132.668,149.793L132.595,150.022L132.523,150.252L132.452,150.482L132.381,150.713L132.311,150.944L132.242,151.175L132.174,151.406L132.106,151.638L132.04,151.87L131.973,152.102L131.908,152.335L131.844,152.567L131.78,152.8L131.717,153.034L131.654,153.268L131.593,153.501L131.532,153.736L131.472,153.97L131.412,154.205L131.354,154.44L131.296,154.675L131.239,154.911L131.183,155.147L131.127,155.383L131.073,155.619L131.019,155.856L130.965,156.093L130.913,156.33L130.861,156.567L130.81,156.805L130.76,157.043L130.711,157.281L130.662,157.519L130.615,157.758L130.568,157.997L130.521,158.236L130.476,158.476L130.431,158.716L130.388,158.956L130.344,159.196L130.302,159.436L130.261,159.677L130.22,159.918L130.18,160.159L130.141,160.401L130.103,160.642L130.065,160.884L130.028,161.126L129.992,161.369L129.957,161.611L129.923,161.854L129.889,162.097L129.857,162.341L129.825,162.584L129.794,162.828L129.763,163.072L129.734,163.316L129.705,163.561L129.677,163.806L129.65,164.05L129.624,164.296L129.598,164.541L129.574,164.787L129.55,165.032L129.527,165.278L129.505,165.525L129.483,165.771L129.463,166.018L129.443,166.265L129.424,166.512L129.406,166.759L129.389,167.007L129.372,167.255L129.357,167.503L129.342,167.751L129.328,167.999L129.315,168.248L129.303,168.496L129.291,168.745L129.281,168.995L129.271,169.244L129.262,169.494L129.254,169.743L129.247,169.993L129.241,170.243L129.235,170.494L129.23,170.744L129.227,170.995L129.224,171.246L129.221,171.497L129.22,171.749L129.22,172L129.22,172.251L129.221,172.503L129.224,172.754L129.227,173.005L129.23,173.256L129.235,173.506L129.241,173.757L129.247,174.007L129.254,174.257L129.262,174.506L129.271,174.756L129.281,175.005L129.291,175.255L129.303,175.504L129.315,175.752L129.328,176.001L129.342,176.249L129.357,176.497L129.372,176.745L129.389,176.993L129.406,177.241L129.424,177.488L129.443,177.735L129.463,177.982L129.483,178.229L129.505,178.475L129.527,178.722L129.55,178.968L129.574,179.213L129.598,179.459L129.624,179.704L129.65,179.95L129.677,180.194L129.705,180.439L129.734,180.684L129.763,180.928L129.794,181.172L129.825,181.416L129.857,181.659L129.889,181.903L129.923,182.146L129.957,182.389L129.992,182.631L130.028,182.874L130.065,183.116L130.103,183.358L130.141,183.599L130.18,183.841L130.22,184.082L130.261,184.323L130.302,184.564L130.344,184.804L130.388,185.044L130.431,185.284L130.476,185.524L130.521,185.764L130.568,186.003L130.615,186.242L130.662,186.481L130.711,186.719L130.76,186.957L130.81,187.195L130.861,187.433L130.913,187.67L130.965,187.907L131.019,188.144L131.073,188.381L131.127,188.617L131.183,188.853L131.239,189.089L131.296,189.325L131.354,189.56L131.412,189.795L131.472,190.03L131.532,190.264L131.593,190.499L131.654,190.732L131.717,190.966L131.78,191.2L131.844,191.433L131.908,191.665L131.973,191.898L132.04,192.13L132.106,192.362L132.174,192.594L132.242,192.825L132.311,193.056L132.381,193.287L132.452,193.518L132.523,193.748L132.595,193.978L132.668,194.207L132.741,194.437L132.816,194.666L132.891,194.895L132.966,195.123L133.043,195.351L133.12,195.579L133.198,195.807L133.277,196.034L133.356,196.261L133.436,196.488L133.517,196.714L133.598,196.94L133.681,197.166L133.764,197.391L133.847,197.616L133.932,197.841L134.017,198.065L134.103,198.289L134.189,198.513L134.277,198.737L134.365,198.96L134.453,199.183L134.543,199.405L134.633,199.628L134.723,199.85L134.815,200.071L134.907,200.292L135,200.513L135.094,200.734L135.188,200.954L135.283,201.174L135.379,201.394L135.475,201.613L135.572,201.832L135.67,202.051L135.769,202.269L135.868,202.487L135.968,202.704L136.068,202.922L136.169,203.139L136.271,203.355L136.374,203.571L136.477,203.787L136.581,204.003L136.686,204.218L136.791,204.433L136.897,204.647L137.004,204.861L137.111,205.075L137.219,205.289L137.328,205.502L137.437,205.715L137.547,205.927L137.658,206.139L137.769,206.351L137.881,206.562L137.994,206.773L138.107,206.983L138.221,207.193L138.336,207.403L138.451,207.613L138.567,207.822L138.684,208.031L138.801,208.239L138.919,208.447L139.038,208.655L139.157,208.862L139.277,209.069L139.398,209.275L139.519,209.481L139.641,209.687L139.763,209.892L139.887,210.097L140.01,210.302L140.135,210.506L140.26,210.71L140.386,210.913L140.512,211.116L140.639,211.319L140.767,211.521L140.895,211.723L141.024,211.925L141.153,212.126L141.284,212.326L141.414,212.527L141.546,212.727L141.678,212.926L141.81,213.125L141.944,213.324L142.078,213.522L142.212,213.72L142.347,213.918L142.483,214.115L142.619,214.311L142.756,214.508L142.894,214.704L143.032,214.899L143.171,215.094L143.311,215.289L143.451,215.483L143.591,215.677L143.733,215.87L143.875,216.063L144.017,216.256L144.16,216.448L144.304,216.64L144.448,216.831L144.593,217.022L144.738,217.212L144.885,217.402L145.031,217.592L145.179,217.781L145.326,217.97L145.475,218.158L145.624,218.346L145.774,218.533L145.924,218.72L146.075,218.907L146.226,219.093L146.378,219.279L146.531,219.464L146.684,219.649L146.837,219.833L146.992,220.017L147.147,220.201L147.302,220.384L147.458,220.566L147.615,220.748L147.772,220.93L147.93,221.111L148.088,221.292L148.247,221.473L148.406,221.653L148.566,221.832L148.727,222.011L148.888,222.19L149.05,222.368L149.212,222.545L149.375,222.722L149.538,222.899L149.702,223.075L149.867,223.251L150.032,223.426L150.197,223.601L150.363,223.776L150.53,223.95L150.697,224.123L150.865,224.296L151.034,224.468L151.202,224.64L151.372,224.812L151.542,224.983L151.712,225.154L151.883,225.324L152.055,225.493L152.227,225.663L152.4,225.831L152.573,225.999L152.747,226.167L152.921,226.334L153.096,226.501L153.271,226.667L153.447,226.833L153.624,226.998L153.8,227.163L153.978,227.327L154.156,227.491L154.334,227.655L154.513,227.817L154.693,227.98L154.873,228.141L155.054,228.303L155.235,228.464L155.416,228.624L155.598,228.784L155.781,228.943L155.964,229.102L156.148,229.26L156.332,229.418L156.517,229.575L156.702,229.732L156.887,229.888L157.074,230.044L157.26,230.199L157.447,230.354L157.635,230.508L157.823,230.661L158.012,230.815L158.201,230.967L158.391,231.119L158.581,231.271L158.772,231.422L158.963,231.573L159.154,231.723L159.346,231.872L159.539,232.021L159.732,232.169L159.926,232.317L160.12,232.465L160.314,232.611L160.509,232.758L160.705,232.904L160.901,233.049L161.097,233.193L161.294,233.338L161.491,233.481L161.689,233.624L161.888,233.767L162.086,233.909L162.286,234.05L162.485,234.191L162.686,234.331L162.886,234.471L163.087,234.61L163.289,234.749L163.491,234.887L163.693,235.025L163.896,235.162L164.1,235.298L164.304,235.434L164.508,235.569L164.713,235.704L164.918,235.838L165.124,235.972L165.33,236.105L165.536,236.238L165.743,236.37L165.951,236.501L166.159,236.632L166.367,236.762L166.576,236.892L166.785,237.021L166.995,237.15L167.205,237.278L167.416,237.405L167.627,237.532L167.838,237.658L168.05,237.784L168.262,237.909L168.475,238.033L168.688,238.157L168.902,238.281L169.116,238.403L169.33,238.526L169.545,238.647L169.76,238.768L169.976,238.889L170.192,239.008L170.409,239.128L170.625,239.246L170.843,239.364L171.061,239.482L171.279,239.599L171.497,239.715L171.716,239.83L171.936,239.946L172.156,240.06L172.376,240.174L172.597,240.287L172.818,240.4L173.039,240.512L173.261,240.623L173.483,240.734L173.706,240.844L173.929,240.954L174.152,241.063L174.376,241.171L174.6,241.279L174.825,241.386L175.05,241.492L175.275,241.598L175.501,241.704L175.727,241.808L175.954,241.912L176.181,242.016L176.408,242.119L176.636,242.221L176.864,242.322L177.092,242.423L177.321,242.523L177.551,242.623L177.78,242.722L178.01,242.82L178.241,242.918L178.471,243.015L178.702,243.112L178.934,243.208L179.166,243.303L179.398,243.397L179.63,243.491L179.863,243.585L180.097,243.677L180.33,243.769L180.564,243.861L180.799,243.951L181.034,244.041L181.269,244.131L181.504,244.22L181.74,244.308L181.976,244.395L182.213,244.482L182.449,244.568L182.687,244.653L182.924,244.738L183.162,244.822L183.4,244.906L183.639,244.989L183.878,245.071L184.117,245.153L184.357,245.233L184.597,245.314L184.837,245.393L185.078,245.472L185.319,245.55L185.56,245.628L185.802,245.704L186.044,245.781L186.286,245.856L186.528,245.931L186.771,246.005L187.015,246.079L187.258,246.151L187.502,246.223L187.746,246.295L187.991,246.366L188.236,246.436L188.481,246.505L188.727,246.574L188.972,246.642L189.219,246.709L189.465,246.776L189.712,246.841L189.959,246.907L190.206,246.971L190.454,247.035L190.702,247.098L190.95,247.161L191.199,247.222L191.448,247.283L191.697,247.344L191.947,247.403L192.197,247.462L192.447,247.521L192.697,247.578L192.948,247.635L193.199,247.691L193.45,247.746L193.702,247.801L193.954,247.855L194.206,247.908L194.458,247.961L194.711,248.013L194.964,248.064L195.217,248.114L195.471,248.164L195.725,248.213L195.979,248.261L196.233,248.309L196.488,248.356L196.743,248.402L196.998,248.447L197.254,248.492L197.51,248.536L197.766,248.579L198.022,248.621L198.279,248.663L198.536,248.704L198.793,248.744L199.05,248.784L199.308,248.822L199.566,248.86L199.824,248.898L200.083,248.934L200.341,248.97L200.6,249.005L200.86,249.039L201.119,249.073L201.379,249.106L201.639,249.138L201.899,249.169L202.16,249.2L202.42,249.23L202.681,249.259L202.943,249.287L203.204,249.315L203.466,249.341L203.728,249.367L203.99,249.393L204.252,249.417L204.515,249.441L204.778,249.464L205.041,249.486L205.305,249.508L205.568,249.529L205.832,249.549L206.096,249.568L206.36,249.586L206.625,249.604L206.89,249.621L207.155,249.637L207.42,249.652L207.685,249.667L207.951,249.68L208.217,249.693L208.483,249.706L208.749,249.717L209.016,249.728L209.283,249.738L209.55,249.747L209.817,249.755L210.084,249.763L210.352,249.769L210.62,249.775L210.888,249.78L211.156,249.785L211.424,249.788L211.693,249.791L211.962,249.793L212.231,249.794L212.5,249.795L212.769,249.794L213.038,249.793L213.307,249.791L213.576,249.788L213.844,249.785L214.112,249.78L214.38,249.775L214.648,249.769L214.916,249.763L215.183,249.755L215.45,249.747L215.717,249.738L215.984,249.728L216.251,249.717L216.517,249.706L216.783,249.693L217.049,249.68L217.315,249.667L217.58,249.652L217.845,249.637L218.11,249.621L218.375,249.604L218.64,249.586L218.904,249.568L219.168,249.549L219.432,249.529L219.695,249.508L219.959,249.486L220.222,249.464L220.485,249.441L220.748,249.417L221.01,249.393L221.272,249.367L221.534,249.341L221.796,249.315L222.057,249.287L222.319,249.259L222.58,249.23L222.84,249.2L223.101,249.169L223.361,249.138L223.621,249.106L223.881,249.073L224.14,249.039L224.4,249.005L224.659,248.97L224.917,248.934L225.176,248.898L225.434,248.86L225.692,248.822L225.95,248.784L226.207,248.744L226.464,248.704L226.721,248.663L226.978,248.621L227.234,248.579L227.49,248.536L227.746,248.492L228.002,248.447L228.257,248.402L228.512,248.356L228.767,248.309L229.021,248.261L229.275,248.213L229.529,248.164L229.783,248.114L230.036,248.064L230.289,248.013L230.542,247.961L230.794,247.908L231.046,247.855L231.298,247.801L231.55,247.746L231.801,247.691L232.052,247.635L232.303,247.578L232.553,247.521L232.803,247.462L233.053,247.403L233.303,247.344L233.552,247.283L233.801,247.222L234.05,247.161L234.298,247.098L234.546,247.035L234.794,246.971L235.041,246.907L235.288,246.841L235.535,246.776L235.781,246.709L236.028,246.642L236.273,246.574L236.519,246.505L236.764,246.436L237.009,246.366L237.254,246.295L237.498,246.223L237.742,246.151L237.985,246.079L238.229,246.005L238.472,245.931L238.714,245.856L238.956,245.781L239.198,245.704L239.44,245.628L239.681,245.55L239.922,245.472L240.163,245.393L240.403,245.314L240.643,245.233L240.883,245.153L241.122,245.071L241.361,244.989L241.6,244.906L241.838,244.822L242.076,244.738L242.313,244.653L242.551,244.568L242.787,244.482L243.024,244.395L243.26,244.308L243.496,244.22L243.731,244.131L243.966,244.041L244.201,243.951L244.436,243.861L244.67,243.769L244.903,243.677L245.137,243.585L245.37,243.491L245.602,243.397L245.834,243.303L246.066,243.208L246.298,243.112L246.529,243.015L246.759,242.918L246.99,242.82L247.22,242.722L247.449,242.623L247.679,242.523L247.908,242.423L248.136,242.322L248.364,242.221L248.592,242.119L248.819,242.016L249.046,241.912L249.273,241.808L249.499,241.704L249.725,241.598L249.95,241.492L250.175,241.386L250.4,241.279L250.624,241.171L250.848,241.063L251.071,240.954L251.294,240.844L251.517,240.734L251.739,240.623L251.961,240.512L252.182,240.4L252.403,240.287L252.624,240.174L252.844,240.06L253.064,239.945L253.284,239.83L253.503,239.715L253.721,239.599L253.939,239.482L254.157,239.364L254.375,239.246L254.591,239.128L254.808,239.008L255.024,238.889L255.24,238.768L255.455,238.647L255.67,238.526L255.884,238.403L256.098,238.281L256.312,238.157L256.525,238.033L256.738,237.909L256.95,237.784L257.162,237.658L257.373,237.532L257.584,237.405L257.795,237.278L258.005,237.15L258.215,237.021L258.424,236.892L258.633,236.762L258.841,236.632L259.049,236.501L259.257,236.37L259.464,236.238L259.67,236.105L259.876,235.972L260.082,235.838L260.287,235.704L260.492,235.569L260.696,235.434L260.9,235.298L261.104,235.162L261.307,235.025L261.509,234.887L261.711,234.749L261.913,234.61L262.114,234.471L262.315,234.331L262.515,234.191L262.714,234.05L262.914,233.909L263.112,233.767L263.311,233.624L263.509,233.481L263.706,233.338L263.903,233.193L264.099,233.049L264.295,232.904L264.491,232.758L264.686,232.611L264.88,232.465L265.074,232.317L265.268,232.169L265.461,232.021L265.654,231.872L265.846,231.723L266.037,231.573L266.229,231.422L266.419,231.271L266.609,231.119L266.799,230.967L266.988,230.815L267.177,230.661L267.365,230.508L267.553,230.354L267.74,230.199L267.926,230.044L268.113,229.888L268.298,229.732L268.483,229.575L268.668,229.418L268.852,229.26L269.036,229.102L269.219,228.943L269.402,228.784L269.584,228.624L269.765,228.464L269.946,228.303L270.127,228.141L270.307,227.98L270.487,227.817L270.666,227.655L270.844,227.491L271.022,227.327L271.2,227.163L271.376,226.998L271.553,226.833L271.729,226.667L271.904,226.501L272.079,226.334L272.253,226.167L272.427,225.999L272.6,225.831L272.773,225.663L272.945,225.493L273.117,225.324L273.288,225.154L273.458,224.983L273.628,224.812L273.798,224.64L273.966,224.468L274.135,224.296L274.303,224.123L274.47,223.95L274.637,223.776L274.803,223.601L274.968,223.426L275.133,223.251L275.298,223.075L275.462,222.899L275.625,222.722L275.788,222.545L275.95,222.368L276.112,222.19L276.273,222.011L276.434,221.832L276.594,221.653L276.753,221.473L276.912,221.292L277.07,221.111L277.228,220.93L277.385,220.748L277.542,220.566L277.698,220.384L277.853,220.201L278.008,220.017L278.163,219.833L278.316,219.649L278.469,219.464L278.622,219.279L278.774,219.093L278.925,218.907L279.076,218.72L279.226,218.533L279.376,218.346L279.525,218.158L279.674,217.97L279.821,217.781L279.969,217.592L280.115,217.402L280.262,217.212L280.407,217.022L280.552,216.831L280.696,216.64L280.84,216.448L280.983,216.256L281.125,216.063L281.267,215.87L281.409,215.677L281.549,215.483L281.689,215.289L281.829,215.094L281.968,214.899L282.106,214.704L282.244,214.508L282.381,214.311L282.517,214.115L282.653,213.918L282.788,213.72L282.922,213.522L283.056,213.324L283.19,213.125L283.322,212.926L283.454,212.727L283.586,212.527L283.716,212.326L283.847,212.126L283.976,211.925L284.105,211.723L284.233,211.521L284.361,211.319L284.488,211.116L284.614,210.913L284.74,210.71L284.865,210.506L284.99,210.302L285.113,210.097L285.237,209.892L285.359,209.687L285.481,209.481L285.602,209.275L285.723,209.069L285.843,208.862L285.962,208.655L286.081,208.447L286.199,208.239L286.316,208.031L286.433,207.822L286.549,207.613L286.664,207.403L286.779,207.193L286.893,206.983L287.006,206.773L287.119,206.562L287.231,206.351L287.342,206.139L287.453,205.927L287.563,205.715L287.672,205.502L287.781,205.289L287.889,205.075L287.996,204.861L288.103,204.647L288.209,204.433L288.314,204.218L288.419,204.003L288.523,203.787L288.626,203.571L288.729,203.355L288.831,203.139L288.932,202.922L289.032,202.704L289.132,202.487L289.231,202.269L289.33,202.051L289.428,201.832L289.525,201.613L289.621,201.394L289.717,201.174L289.812,200.954L289.906,200.734L290,200.513L290.093,200.292L290.185,200.071L290.277,199.85L290.367,199.628L290.457,199.405L290.547,199.183L290.635,198.96L290.723,198.737L290.811,198.513L290.897,198.289L290.983,198.065L291.068,197.841L291.153,197.616L291.236,197.391L291.319,197.166L291.402,196.94L291.483,196.714L291.564,196.488L291.644,196.261L291.723,196.034L291.802,195.807L291.88,195.579L291.957,195.351L292.034,195.123L292.109,194.895L292.184,194.666L292.259,194.437L292.332,194.207L292.405,193.978L292.477,193.748L292.548,193.518L292.619,193.287L292.689,193.056L292.758,192.825L292.826,192.594L292.894,192.362L292.96,192.13L293.027,191.898L293.092,191.665L293.157,191.433L293.22,191.2L293.283,190.966L293.346,190.732L293.407,190.499L293.468,190.264L293.528,190.03L293.588,189.795L293.646,189.56L293.704,189.325L293.761,189.089L293.817,188.853L293.873,188.617L293.927,188.381L293.981,188.144L294.035,187.907L294.087,187.67L294.139,187.433L294.19,187.195L294.24,186.957L294.289,186.719L294.338,186.481L294.385,186.242L294.432,186.003L294.479,185.764L294.524,185.524L294.569,185.284L294.612,185.044L294.656,184.804L294.698,184.564L294.739,184.323L294.78,184.082L294.82,183.841L294.859,183.599L294.897,183.358L294.935,183.116L294.972,182.874L295.008,182.631L295.043,182.389L295.077,182.146L295.111,181.903L295.143,181.659L295.175,181.416L295.206,181.172L295.237,180.928L295.266,180.684L295.295,180.439L295.323,180.194L295.35,179.95L295.376,179.704L295.402,179.459L295.426,179.213L295.45,178.968L295.473,178.722L295.495,178.475L295.517,178.229L295.537,177.982L295.557,177.735L295.576,177.488L295.594,177.241L295.611,176.993L295.628,176.745L295.643,176.497L295.658,176.249L295.672,176.001L295.685,175.752L295.697,175.504L295.709,175.255L295.719,175.005L295.729,174.756L295.738,174.506L295.746,174.257L295.753,174.007L295.759,173.757L295.765,173.506L295.77,173.256L295.773,173.005L295.776,172.754L295.779,172.503L295.78,172.251L295.78,172L295.78,171.749L295.779,171.497L295.776,171.246L295.773,170.995L295.77,170.744L295.765,170.494L295.759,170.243L295.753,169.993L295.746,169.743L295.738,169.494L295.729,169.244L295.719,168.995L295.709,168.745L295.697,168.496L295.685,168.248L295.672,167.999L295.658,167.751L295.643,167.503L295.628,167.255L295.611,167.007L295.594,166.759L295.576,166.512L295.557,166.265L295.537,166.018L295.517,165.771L295.495,165.525L295.473,165.278L295.45,165.032L295.426,164.787L295.402,164.541L295.376,164.296L295.35,164.05L295.323,163.806L295.295,163.561L295.266,163.316L295.237,163.072L295.206,162.828L295.175,162.584L295.143,162.341L295.111,162.097L295.077,161.854L295.043,161.611L295.008,161.369L294.972,161.126L294.935,160.884L294.897,160.642L294.859,160.401L294.82,160.159L294.78,159.918L294.739,159.677L294.698,159.436L294.656,159.196L294.612,158.956L294.569,158.716L294.524,158.476L294.479,158.236L294.432,157.997L294.385,157.758L294.338,157.519L294.289,157.281L294.24,157.043L294.19,156.805L294.139,156.567L294.087,156.33L294.035,156.093L293.981,155.856L293.927,155.619L293.873,155.383L293.817,155.147L293.761,154.911L293.704,154.675L293.646,154.44L293.588,154.205L293.528,153.97L293.468,153.736L293.407,153.501L293.346,153.268L293.283,153.034L293.22,152.8L293.157,152.567L293.092,152.335L293.027,152.102L292.96,151.87L292.894,151.638L292.826,151.406L292.758,151.175L292.689,150.944L292.619,150.713L292.548,150.482L292.477,150.252L292.405,150.022L292.332,149.793L292.259,149.563L292.184,149.334L292.109,149.105L292.034,148.877L291.957,148.649L291.88,148.421L291.802,148.193L291.723,147.966L291.644,147.739L291.564,147.512L291.483,147.286L291.402,147.06L291.319,146.834L291.236,146.609L291.153,146.384L291.068,146.159L290.983,145.935L290.897,145.711L290.811,145.487L290.723,145.263L290.635,145.04L290.547,144.817L290.457,144.595L290.367,144.372L290.277,144.15L290.185,143.929L290.093,143.708L290,143.487L289.906,143.266L289.812,143.046L289.717,142.826L289.621,142.606L289.525,142.387L289.428,142.168L289.33,141.949L289.231,141.731L289.132,141.513L289.032,141.296L288.932,141.078L288.831,140.861L288.729,140.645L288.626,140.429L288.523,140.213L288.419,139.997L288.314,139.782L288.209,139.567L288.103,139.353L287.996,139.139L287.889,138.925L287.781,138.711L287.672,138.498L287.563,138.285L287.453,138.073L287.342,137.861L287.231,137.649L287.119,137.438L287.006,137.227L286.893,137.017L286.779,136.807L286.664,136.597L286.549,136.387L286.433,136.178L286.316,135.969L286.199,135.761L286.081,135.553L285.962,135.345L285.843,135.138L285.723,134.931L285.602,134.725L285.481,134.519L285.359,134.313L285.237,134.108L285.113,133.903L284.99,133.698L284.865,133.494L284.74,133.29L284.614,133.087L284.488,132.884L284.361,132.681L284.233,132.479L284.105,132.277L283.976,132.075L283.847,131.874L283.716,131.674L283.586,131.473L283.454,131.273L283.322,131.074L283.19,130.875L283.056,130.676L282.922,130.478L282.788,130.28L282.653,130.082L282.517,129.885L282.381,129.689L282.244,129.492L282.106,129.296L281.968,129.101L281.829,128.906L281.689,128.711L281.549,128.517L281.409,128.323L281.267,128.13L281.125,127.937L280.983,127.744L280.84,127.552L280.696,127.36L280.552,127.169L280.407,126.978L280.262,126.788L280.115,126.598L279.969,126.408L279.821,126.219L279.674,126.03L279.525,125.842L279.376,125.654L279.226,125.467L279.076,125.28L278.925,125.093L278.774,124.907L278.622,124.721L278.469,124.536L278.316,124.351L278.163,124.167L278.008,123.983L277.853,123.799L277.698,123.616L277.542,123.434L277.385,123.252L277.228,123.07L277.07,122.889L276.912,122.708L276.753,122.527L276.594,122.347L276.434,122.168L276.273,121.989L276.112,121.811L275.95,121.632L275.788,121.455L275.625,121.278L275.462,121.101L275.298,120.925L275.133,120.749L274.968,120.574L274.803,120.399L274.637,120.224L274.47,120.05L274.303,119.877L274.135,119.704L273.966,119.532L273.798,119.36L273.628,119.188L273.458,119.017L273.288,118.846L273.117,118.676L272.945,118.507L272.773,118.337L272.6,118.169L272.427,118.001L272.253,117.833L272.079,117.666L271.904,117.499L271.729,117.333L271.553,117.167L271.376,117.002L271.2,116.837L271.022,116.673L270.844,116.509L270.666,116.345L270.487,116.183L270.307,116.02L270.127,115.859L269.946,115.697L269.765,115.536L269.584,115.376L269.402,115.216L269.219,115.057L269.036,114.898L268.852,114.74L268.668,114.582L268.483,114.425L268.298,114.268L268.113,114.112L267.926,113.956L267.74,113.801L267.553,113.646L267.365,113.492L267.177,113.339L266.988,113.185L266.799,113.033L266.609,112.881L266.419,112.729L266.229,112.578L266.037,112.427L265.846,112.277L265.654,112.128L265.461,111.979L265.268,111.831L265.074,111.683L264.88,111.535L264.686,111.389L264.491,111.242L264.295,111.096L264.099,110.951L263.903,110.807L263.706,110.662L263.509,110.519L263.311,110.376L263.112,110.233L262.914,110.091L262.714,109.95L262.515,109.809L262.314,109.669L262.114,109.529L261.913,109.39L261.711,109.251L261.509,109.113L261.307,108.975L261.104,108.838L260.9,108.702L260.696,108.566L260.492,108.431L260.287,108.296L260.082,108.162L259.876,108.028L259.67,107.895L259.464,107.762L259.257,107.63L259.049,107.499L258.841,107.368L258.633,107.238L258.424,107.108L258.215,106.979L258.005,106.85L257.795,106.722L257.584,106.595L257.373,106.468L257.162,106.342L256.95,106.216L256.738,106.091L256.525,105.967L256.312,105.843L256.098,105.719L255.884,105.597L255.67,105.474L255.455,105.353L255.24,105.232L255.024,105.111L254.808,104.992L254.591,104.872L254.375,104.754L254.157,104.636L253.939,104.518L253.721,104.401L253.503,104.285L253.284,104.17L253.064,104.054L252.844,103.94L252.624,103.826L252.403,103.713L252.182,103.6L251.961,103.488L251.739,103.377L251.517,103.266L251.294,103.156L251.071,103.046L250.848,102.937L250.624,102.829L250.4,102.721L250.175,102.614L249.95,102.508L249.725,102.402L249.499,102.296L249.273,102.192L249.046,102.088L248.819,101.984L248.592,101.881L248.364,101.779L248.136,101.678L247.908,101.577L247.679,101.477L247.449,101.377L247.22,101.278L246.99,101.18L246.759,101.082L246.529,100.985L246.298,100.888L246.066,100.792L245.834,100.697L245.602,100.603L245.37,100.509L245.137,100.415L244.903,100.323L244.67,100.231L244.436,100.139L244.201,100.049L243.966,99.959L243.731,99.869L243.496,99.78L243.26,99.692L243.024,99.605L242.787,99.518L242.551,99.432L242.313,99.347L242.076,99.262L241.838,99.178L241.6,99.094L241.361,99.011L241.122,98.929L240.883,98.847L240.643,98.767L240.403,98.686L240.163,98.607L239.922,98.528L239.681,98.45L239.44,98.372L239.198,98.296L238.956,98.219L238.714,98.144L238.472,98.069L238.229,97.995L237.985,97.921L237.742,97.849L237.498,97.777L237.254,97.705L237.009,97.634L236.764,97.564L236.519,97.495L236.273,97.426L236.028,97.358L235.781,97.291L235.535,97.224L235.288,97.159L235.041,97.093L234.794,97.029L234.546,96.965L234.298,96.902L234.05,96.839L233.801,96.778L233.552,96.717L233.303,96.656L233.053,96.597L232.803,96.538L232.553,96.479L232.303,96.422L232.052,96.365L231.801,96.309L231.55,96.254L231.298,96.199L231.046,96.145L230.794,96.092L230.542,96.039L230.289,95.987L230.036,95.936L229.783,95.886L229.529,95.836L229.275,95.787L229.021,95.739L228.767,95.691L228.512,95.644L228.257,95.598L228.002,95.553L227.746,95.508L227.49,95.464L227.234,95.421L226.978,95.379L226.721,95.337L226.464,95.296L226.207,95.256L225.95,95.216L225.692,95.178L225.434,95.14L225.176,95.102L224.917,95.066L224.659,95.03L224.4,94.995L224.14,94.961L223.881,94.927L223.621,94.894L223.361,94.862L223.101,94.831L222.84,94.8L222.58,94.77L222.319,94.741L222.057,94.713L221.796,94.685L221.534,94.659L221.272,94.633L221.01,94.607L220.748,94.583L220.485,94.559L220.222,94.536L219.959,94.514L219.695,94.492L219.432,94.471L219.168,94.451L218.904,94.432L218.64,94.414L218.375,94.396L218.11,94.379L217.845,94.363L217.58,94.348L217.315,94.333L217.049,94.32L216.783,94.307L216.517,94.294L216.251,94.283L215.984,94.272L215.717,94.262L215.45,94.253L215.183,94.245L214.916,94.237L214.648,94.231L214.38,94.225L214.112,94.22L213.844,94.215L213.576,94.212L213.307,94.209L213.038,94.207L212.769,94.206L212.5,94.205L212.231,94.206Z" style="fill:rgb(31,40,51);"/>
        </g>
        <g transform="matrix(1,0,0,1,5.5,24)">
            <path d="M111,304C167.546,321.994 224.941,323.581 283.327,306" style="fill:none;stroke:rgb(31,40,51);stroke-width:5px;"/>
        </g>
    </g>
</svg>
